<svg xmlns="http://www.w3.org/2000/svg" version="1.1" xmlns:xlink="http://www.w3.org/1999/xlink" xmlns:svgjs="http://svgjs.com/svgjs" width="1440" height="560" preserveAspectRatio="none" viewBox="0 0 1440 560"><g mask="url(&quot;#SvgjsMask1126&quot;)" fill="none"><rect width="1440" height="560" x="0" y="0" fill="url(#SvgjsRadialGradient1127)"></rect><path d="M0 0L132.35 0L0 160.49z" fill="rgba(255, 255, 255, .1)"></path><path d="M0 160.49L132.35 0L660.41 0L0 323.37z" fill="rgba(255, 255, 255, .075)"></path><path d="M0 323.37L660.41 0L760.6999999999999 0L0 407.7z" fill="rgba(255, 255, 255, .05)"></path><path d="M0 407.7L760.6999999999999 0L994.4399999999999 0L0 441.95z" fill="rgba(255, 255, 255, .025)"></path><path d="M1440 560L781.36 560L1440 442.07z" fill="rgba(0, 0, 0, .1)"></path><path d="M1440 442.07L781.36 560L738.2 560L1440 388.46z" fill="rgba(0, 0, 0, .075)"></path><path d="M1440 388.46L738.2 560L622.75 560L1440 254.84999999999997z" fill="rgba(0, 0, 0, .05)"></path><path d="M1440 254.84999999999997L622.75 560L433.53999999999996 560L1440 136.00999999999996z" fill="rgba(0, 0, 0, .025)"></path></g><defs><mask id="SvgjsMask1126"><rect width="1440" height="560" fill="#ffffff"></rect></mask><radialGradient cx="100%" cy="100%" r="1545.06" gradientUnits="userSpaceOnUse" id="SvgjsRadialGradient1127"><stop stop-color="rgba(162, 204, 78, 1)" offset="0"></stop><stop stop-color="rgba(144, 197, 39, 1)" offset="0.19"></stop></radialGradient></defs></svg>