<svg xmlns="http://www.w3.org/2000/svg" version="1.1" xmlns:xlink="http://www.w3.org/1999/xlink" xmlns:svgjs="http://svgjs.com/svgjs" width="1440" height="560" preserveAspectRatio="none" viewBox="0 0 1440 560"><g mask="url(&quot;#SvgjsMask1028&quot;)" fill="none"><rect width="1440" height="560" x="0" y="0" fill="rgba(144, 197, 39, 1)"></rect><path d="M720 852.52C874.15 849.99 1028.71 806.7 1136.67 696.67 1243.71 587.56 1293.25 432.4 1281.66 280 1270.8 137.72 1172.46 28.98 1077.7-77.7 973.92-194.58 875.89-341.05 720-352.41 558.22-364.23 419.53-249.83 306-134 193.85-19.6 103.19 119.83 100.06 280 96.84 442.93 169.7 599.98 289.44 710.56 404.85 817.14 562.91 855.09 720 852.52" fill="rgba(162, 204, 78, 1)"></path><path d="M720 703.16C833.93 701.29 948.17 669.3 1027.97 587.97 1107.09 507.32 1143.71 392.64 1135.14 280 1127.12 174.84 1054.42 94.46 984.38 15.62 907.68-70.78 835.23-179.03 720-187.43 600.42-196.17 497.91-111.61 414-26 331.11 58.56 264.09 161.61 261.78 280 259.4 400.43 313.26 516.5 401.76 598.24 487.07 677.02 603.89 705.07 720 703.16" fill="rgba(162, 204, 78, 1)"></path><path d="M720 553.81C793.72 552.6 867.64 531.9 919.28 479.28 970.47 427.09 994.16 352.89 988.62 280 983.43 211.95 936.39 159.95 891.07 108.93 841.44 53.03 794.56-17.02 720-22.46 642.63-28.11 576.3 26.6 522 82 468.36 136.71 425 203.4 423.51 280 421.97 357.92 456.81 433.03 514.08 485.92 569.28 536.89 644.87 555.04 720 553.81" fill="rgba(144, 197, 39, 1)"></path><path d="M720 404.46C753.51 403.91 787.11 394.5 810.58 370.58 833.85 346.86 844.62 313.13 842.1 280 839.74 249.07 818.36 225.43 797.76 202.24 775.2 176.83 753.89 144.99 720 142.52 684.83 139.95 654.68 164.82 630 190 605.62 214.87 585.91 245.18 585.23 280 584.53 315.42 600.37 349.56 626.4 373.6 651.49 396.77 685.85 405.02 720 404.46" fill="rgba(162, 204, 78, 1)"></path></g><defs><mask id="SvgjsMask1028"><rect width="1440" height="560" fill="#ffffff"></rect></mask></defs></svg>