<svg xmlns="http://www.w3.org/2000/svg" version="1.1" xmlns:xlink="http://www.w3.org/1999/xlink" xmlns:svgjs="http://svgjs.com/svgjs" width="1440" height="583" preserveAspectRatio="none" viewBox="0 0 1440 583"><g mask="url(&quot;#SvgjsMask1346&quot;)" fill="none"><rect width="1440" height="583" x="0" y="0" fill="rgba(144, 197, 39, 1)"></rect><path d="M0,568.912C111.38,577.837,238.471,574.812,320.999,499.484C402.374,425.207,364.487,287.413,415.431,189.721C470.805,83.536,635.339,29.187,628.603,-90.379C622.017,-207.284,461.047,-244.59,385.903,-334.387C308.867,-426.445,296.083,-582.928,182.921,-622.971C70.335,-662.81,-53.371,-589.366,-154.314,-525.544C-239.551,-471.652,-272.125,-369.233,-338.49,-293.303C-405.248,-216.924,-507.147,-172.435,-545.151,-78.381C-587.808,27.188,-609.959,153.416,-560.42,255.935C-511.048,358.108,-388.63,395.23,-289.557,450.559C-196.639,502.451,-106.086,560.411,0,568.912" fill="#89bb25"></path><path d="M1440 1090.108C1550.528 1077.633 1675.529 1155.1 1766.9279999999999 1091.71 1858.5729999999999 1028.15 1844.615 889.81 1880.874 784.34 1913.0149999999999 690.848 1973.127 605.823 1967.908 507.098 1962.452 403.881 1901.941 316.685 1851.388 226.52999999999997 1788.41 114.21699999999998 1750.295-25.297000000000025 1636.059-84.71500000000003 1517.2-146.538 1364.5430000000001-145.12199999999996 1242.309-90.27300000000002 1124.531-37.423 1085.233 104.79899999999998 999.211 201.05399999999997 911.391 299.321 759.679 352.379 731.635 481.152 703.492 610.379 801.064 729.421 858.161 848.717 914.201 965.8050000000001 942.038 1121.5349999999999 1061.937 1171.278 1183.451 1221.691 1309.273 1104.862 1440 1090.108" fill="#97cf29"></path></g><defs><mask id="SvgjsMask1346"><rect width="1440" height="583" fill="#ffffff"></rect></mask></defs></svg>