<?xml version="1.0" standalone="no"?>
<svg viewBox="0 0 200 200" xmlns="http://www.w3.org/2000/svg">
  <path fill="#F9B271" d="M44.6,-67.5C58.4,-60.5,70.5,-49.1,79.1,-34.8C87.8,-20.5,92.9,-3.2,88.2,11C83.5,25.1,68.9,36.1,55.9,45.3C43,54.4,31.7,61.8,20,62.8C8.4,63.8,-3.6,58.4,-15.7,54.4C-27.8,50.4,-40,47.8,-52.5,41.2C-64.9,34.5,-77.6,23.7,-82.6,9.9C-87.7,-3.9,-85.2,-20.8,-76.4,-32.8C-67.7,-44.7,-52.7,-51.7,-38.9,-58.6C-25.2,-65.6,-12.6,-72.4,1.4,-74.6C15.4,-76.8,30.8,-74.4,44.6,-67.5Z" transform="translate(100 100)" />
</svg>
