<?xml version="1.0" encoding="iso-8859-1"?>
<!-- Generator: Adobe Illustrator 19.0.0, SVG Export Plug-In . SVG Version: 6.00 Build 0)  -->
<svg version="1.1" id="Layer_1" xmlns="http://www.w3.org/2000/svg" xmlns:xlink="http://www.w3.org/1999/xlink" x="0px" y="0px"
	 viewBox="0 0 505.139 505.139" style="enable-background:new 0 0 505.139 505.139;" xml:space="preserve">
<g transform="translate(1)">
	<path style="fill:#15A143;" d="M477.426,277.914c0,51.2-112.472,187.174-243.41,167.869c-2.518,0,91.489,94.007,201.443,25.18
		C539.538,405.495,477.426,277.914,477.426,277.914"/>
	<path style="fill:#1CD759;" d="M469.033,294.701c0,51.2-104.079,170.387-235.016,151.082c-2.518,0,67.148,85.613,176.262,16.787
		C515.197,397.101,469.033,294.701,469.033,294.701"/>
	<path style="fill:#FFFFFF;" d="M137.492,460.891c-1.679-1.679-4.197-4.197-5.875-6.715c-3.357-3.357-6.715-6.715-10.072-10.072
		s-5.875-6.715-8.393-10.911C98.043,411.37,90.489,385.35,91.328,360.17c0.839-33.574,16.787-67.148,44.485-91.489
		c1.679-1.679,3.357-3.357,5.036-5.036l0.839-0.839c18.466-20.144,32.734-56.236,38.61-114.99
		c-11.751,28.538-31.895,57.075-67.148,74.702c-55.397,27.698-76.38,48.682-91.489,75.541
		C9.911,317.364,7.393,340.026,7.393,358.491c0,62.951,45.325,92.328,130.938,103.239
		C138.331,460.891,137.492,460.891,137.492,460.891L137.492,460.891"/>
	<path style="fill:#FFDD09;" d="M143.367,460.891c-1.679-1.679-3.357-4.197-5.036-6.715c-3.357-3.357-5.875-6.715-8.393-10.072
		c-2.518-3.357-5.036-6.715-7.554-10.911c-13.43-21.823-19.305-47.843-18.466-73.023c0.839-33.574,14.269-67.148,37.77-91.489
		c1.679-1.679,2.518-3.357,4.197-5.036c0,0,0-0.839,0.839-0.839c15.948-20.144,27.698-56.236,32.734-114.99
		c-10.072,28.538-27.698,57.075-57.915,74.702c-47.003,27.698-64.63,47.843-78.059,74.702
		c-8.393,20.144-10.911,42.807-10.911,61.272c0,62.951,38.61,92.328,111.633,103.239
		C144.207,460.891,144.207,460.891,143.367,460.891L143.367,460.891"/>
	<path style="fill:#FD9808;" d="M234.016,445.783c38.61,5.875,75.541-2.518,109.115-17.626
		c30.216-50.361,19.305-114.99-26.859-155.279c-26.859-23.502-47.003-83.934-47.843-189.692l-0.839-6.715V34.505l-83.934-25.18
		v50.361c0,8.393,0,13.43,0,15.948c0,110.793-20.144,169.548-47.843,193.889c-56.236,47.843-61.272,132.616-5.036,184.656
		c1.679,1.679,4.197,4.197,5.875,6.715c25.18,21.823,55.397,35.252,88.131,35.252c20.984,0,41.128-5.875,59.593-15.108
		C252.482,465.928,232.338,445.783,234.016,445.783"/>
	<g>
		<path style="fill:#FFDD09;" d="M224.784,445.783c33.574,5.875,66.308-2.518,94.846-17.626
			c26.859-50.361,16.787-114.99-23.502-155.279C272.626,249.377,255,188.944,254.161,83.187v-7.554V34.505l-73.862-25.18v50.361
			c0,8.393,0,13.43,0,15.948c0,110.793-17.626,169.548-41.967,193.889c-48.682,47.843-52.879,132.616-4.197,184.656
			c1.679,1.679,3.357,4.197,5.036,6.715c22.662,21.823,48.682,35.252,77.22,35.252c18.466,0,36.092-5.875,52.039-15.108
			C240.731,465.928,223.105,445.783,224.784,445.783"/>
		<path style="fill:#FFDD09;" d="M310.397,268.682c1.679,1.679,3.357,3.357,5.036,4.197c3.357,3.357,6.715,5.875,10.072,9.233
			c12.59,13.43,21.823,28.538,26.859,43.646c4.197,11.751,6.715,24.341,7.554,36.931c0,4.197,0,8.393,0,12.59
			c-0.839,16.787-5.875,32.734-14.269,48.682c-0.839,1.679-1.679,2.518-2.518,4.197c50.361-23.502,92.328-63.79,114.99-99.882
			c-1.679-10.072-5.875-20.984-10.911-30.216c-15.108-26.859-36.931-47.843-91.489-74.702
			C293.61,192.301,267.59,90.741,267.59,90.741C269.269,184.747,286.056,241.823,310.397,268.682
			C310.397,267.842,310.397,267.842,310.397,268.682"/>
	</g>
	<path d="M138.331,470.124h-0.839C77.898,462.57-1,443.265-1,358.491c0-17.626,2.518-42.807,15.108-64.629
		c15.108-26.859,36.092-48.682,94.846-78.059c28.538-14.269,50.361-37.77,63.79-70.505c1.679-4.197,5.875-5.875,10.072-5.036
		c4.197,0.839,6.715,5.036,5.875,9.233c-5.875,56.236-20.144,97.364-41.128,120.026l-0.839,0.839
		c-1.679,1.679-3.357,3.357-5.036,5.036c-25.18,21.823-40.289,52.879-41.128,85.613c-0.839,24.341,5.875,47.843,20.144,67.987
		c2.518,3.357,5.036,6.715,7.554,10.072c2.518,3.357,5.875,6.715,9.233,9.233c0.839,0.839,2.518,2.518,3.357,3.357
		c0.839,0.839,1.679,1.679,2.518,2.518l0,0c0,0,0.839,0,0.839,0.839c2.518,2.518,4.197,6.715,2.518,10.072
		C144.207,467.606,141.689,470.124,138.331,470.124z M164.351,191.462c-13.43,16.787-29.377,29.377-47.843,38.61
		c-54.557,27.698-74.702,47.843-88.131,72.184c-10.072,18.466-12.59,40.289-12.59,56.236c0,49.521,31.056,78.059,99.043,90.649
		c-3.357-3.357-5.875-7.554-8.393-10.911c-15.948-23.502-23.502-50.361-22.662-78.059c1.679-36.931,18.466-72.184,47.003-97.364
		c1.679-0.839,2.518-2.518,4.197-4.197l0.839-0.839C147.564,244.341,157.636,221.678,164.351,191.462z"/>
	<path d="M343.131,436.55c-2.518,0-5.036-0.839-5.875-2.518c-2.518-2.518-2.518-6.715-0.839-10.072l0.839-1.679
		c0.839-0.839,0.839-1.679,1.679-2.518c7.554-14.269,11.751-29.377,13.429-44.485c0-4.197,0-7.554,0-11.751
		c-0.839-11.751-2.518-23.502-6.715-34.413c-5.875-15.108-14.269-29.377-25.18-41.128c-3.357-3.357-5.875-5.875-9.233-9.233
		c-1.679-1.679-3.357-3.357-5.036-5.036l0,0c0,0,0,0,0-0.839c-27.698-30.216-42.807-93.167-44.485-182.977
		c0-4.197,3.357-7.554,7.554-8.393s8.393,2.518,9.233,5.875c0,0.839,26.02,98.203,83.095,126.741
		c58.754,29.377,79.738,51.2,94.846,78.059c5.875,9.233,9.233,20.984,11.751,32.734c0.839,2.518,0,4.197-0.839,5.875
		c-27.698,42.807-72.184,81.416-118.348,103.239C344.81,436.55,343.97,436.55,343.131,436.55z M317.111,262.806
		c1.679,1.679,2.518,2.518,4.197,4.197c3.357,3.357,7.554,6.715,10.072,10.072c12.59,13.43,22.662,29.377,29.377,47.003
		c5.036,12.59,7.554,26.02,7.554,39.449c0,4.197,0,9.233,0,13.429c-0.839,10.911-3.357,22.662-6.715,32.734
		c39.449-23.502,70.505-56.236,87.292-82.256c-2.518-9.233-5.036-17.626-9.233-24.341c-13.43-23.502-32.734-43.646-88.131-71.344
		c-34.413-16.787-57.915-53.718-72.184-84.774C285.216,201.534,297.807,241.823,317.111,262.806l-5.875,5.875L317.111,262.806z"/>
	<path d="M225.623,164.603c-5.036,0-8.393-3.357-8.393-8.393v-50.361c0-5.036,3.357-8.393,8.393-8.393s8.393,3.357,8.393,8.393
		v50.361C234.016,160.406,230.659,164.603,225.623,164.603z"/>
	<path d="M352.364,504.537c-59.593,0-104.918-35.252-116.669-44.485c-7.554-5.875-12.59-10.911-10.072-17.626
		c1.679-3.357,5.036-5.036,8.393-5.036c74.702,10.911,135.974-31.056,165.351-56.236c43.646-36.931,69.666-81.416,69.666-103.239
		c0-4.197,2.518-7.554,6.715-8.393c4.197-0.839,7.554,0.839,9.233,4.197c0.839,1.679,64.63,135.134-45.325,203.961
		C408.6,497.823,379.223,504.537,352.364,504.537z M259.197,455.855c31.056,21.823,97.364,54.557,172.066,7.554
		c40.289-25.18,59.593-63.79,56.236-113.311c-0.839-16.787-4.197-31.895-8.393-43.646c-11.751,27.698-36.092,60.433-67.987,87.292
		C382.58,418.085,328.023,455.855,259.197,455.855z"/>
	<path d="M225.623,504.537c-32.734,0-64.63-12.59-94.007-37.771c-1.679-0.839-2.518-2.518-4.197-4.197
		c-0.839-0.839-1.679-1.679-2.518-2.518c-27.698-26.02-42.807-60.433-41.967-98.203c0.839-37.77,17.626-73.862,47.003-99.882
		c20.144-17.626,45.325-64.629,45.325-187.174c0-1.679,0-4.197,0-6.715V9.324c0-2.518,0.839-5.036,3.357-6.715
		c2.518-1.679,5.036-2.518,7.554-1.679l83.934,25.18c3.357,1.679,5.875,4.197,5.875,8.393v48.682
		c1.679,126.741,28.538,168.708,44.485,182.977c49.521,43.646,62.111,111.633,28.538,166.19c-0.839,1.679-2.518,2.518-3.357,3.357
		c-29.377,13.429-58.754,20.144-87.292,20.144c7.554,5.875,17.626,11.751,30.216,17.626c2.518,1.679,5.036,4.197,5.036,7.554
		s-1.679,5.875-4.197,7.554C268.43,498.662,247.446,504.537,225.623,504.537z M192.049,20.236v47.843c0,3.357,0,5.875,0,7.554
		c0,103.239-16.787,170.387-50.361,199.764c-26.02,22.662-41.128,54.557-41.128,87.292c-0.839,31.895,12.59,62.951,36.931,85.613
		c0.839,0.839,2.518,2.518,3.357,3.357c0.839,0.839,1.679,1.679,2.518,2.518c26.02,22.662,54.557,33.574,83.095,33.574
		c13.43,0,27.698-2.518,40.289-7.554c-18.466-10.911-42.807-27.698-40.289-36.931c0.839-4.197,5.036-6.715,9.233-5.875l0,0
		c33.574,5.036,67.148,0,101.561-15.948c26.859-47.003,15.948-104.918-26.859-142.689c-31.895-27.698-49.521-95.685-50.361-195.567
		l-0.839-6.715V40.38L192.049,20.236z"/>
</g>
<g>
</g>
<g>
</g>
<g>
</g>
<g>
</g>
<g>
</g>
<g>
</g>
<g>
</g>
<g>
</g>
<g>
</g>
<g>
</g>
<g>
</g>
<g>
</g>
<g>
</g>
<g>
</g>
<g>
</g>
</svg>
