<svg id="svg" version="1.1" xmlns="http://www.w3.org/2000/svg" xmlns:xlink="http://www.w3.org/1999/xlink" viewBox="0, 0, 400,400"><g id="svgg"><path id="path0" d="M108.000 27.190 C 107.670 27.409,105.836 27.591,103.924 27.594 C 102.012 27.597,100.336 27.780,100.200 28.000 C 100.064 28.220,98.804 28.400,97.400 28.400 C 95.996 28.400,94.736 28.580,94.600 28.800 C 94.464 29.020,93.643 29.200,92.776 29.200 C 91.909 29.200,91.200 29.380,91.200 29.600 C 91.200 29.820,90.401 30.000,89.424 30.000 C 88.447 30.000,87.536 30.180,87.400 30.400 C 87.264 30.620,86.544 30.800,85.800 30.800 C 85.056 30.800,84.336 30.980,84.200 31.200 C 84.064 31.420,83.423 31.600,82.776 31.600 C 82.129 31.600,81.600 31.780,81.600 32.000 C 81.600 32.220,81.060 32.400,80.400 32.400 C 79.740 32.400,79.200 32.580,79.200 32.800 C 79.200 33.020,78.660 33.200,78.000 33.200 C 77.340 33.200,76.800 33.380,76.800 33.600 C 76.800 33.820,76.350 34.000,75.800 34.000 C 75.250 34.000,74.800 34.180,74.800 34.400 C 74.800 34.620,74.361 34.800,73.824 34.800 C 73.287 34.800,72.736 34.980,72.600 35.200 C 72.464 35.420,72.003 35.600,71.576 35.600 C 71.149 35.600,70.800 35.780,70.800 36.000 C 70.800 36.220,70.440 36.400,70.000 36.400 C 69.560 36.400,69.200 36.580,69.200 36.800 C 69.200 37.020,68.660 37.200,68.000 37.200 C 67.340 37.200,66.800 37.380,66.800 37.600 C 66.800 37.820,66.440 38.000,66.000 38.000 C 65.560 38.000,65.200 38.180,65.200 38.400 C 65.200 38.620,64.840 38.800,64.400 38.800 C 63.960 38.800,63.600 38.980,63.600 39.200 C 63.600 39.420,63.240 39.600,62.800 39.600 C 62.360 39.600,62.000 39.780,62.000 40.000 C 62.000 40.220,61.730 40.400,61.400 40.400 C 61.070 40.400,60.800 40.580,60.800 40.800 C 60.800 41.020,60.517 41.200,60.171 41.200 C 59.826 41.200,59.273 41.470,58.943 41.800 C 58.613 42.130,57.996 42.400,57.571 42.400 C 57.147 42.400,56.800 42.580,56.800 42.800 C 56.800 43.020,56.480 43.200,56.088 43.200 C 55.697 43.200,55.117 43.560,54.800 44.000 C 54.483 44.440,53.903 44.800,53.512 44.800 C 53.120 44.800,52.800 44.950,52.800 45.132 C 52.800 45.315,52.305 45.720,51.700 46.032 C 51.095 46.345,50.251 46.915,49.825 47.300 C 49.398 47.685,48.813 48.000,48.525 48.000 C 48.236 48.000,48.000 48.180,48.000 48.400 C 48.000 48.620,47.730 48.800,47.400 48.800 C 47.070 48.800,46.800 48.980,46.800 49.200 C 46.800 49.420,46.614 49.600,46.387 49.600 C 46.159 49.600,45.360 50.185,44.610 50.900 C 41.481 53.884,39.968 55.200,39.664 55.200 C 38.989 55.200,29.783 64.026,28.399 66.000 C 27.859 66.770,27.053 67.803,26.609 68.296 C 26.164 68.788,25.395 69.637,24.900 70.181 C 24.405 70.726,24.000 71.331,24.000 71.526 C 24.000 71.722,23.460 72.446,22.800 73.137 C 22.140 73.828,21.600 74.546,21.600 74.734 C 21.600 74.922,21.240 75.402,20.800 75.800 C 20.360 76.198,20.000 76.726,20.000 76.974 C 20.000 77.221,19.640 77.683,19.200 78.000 C 18.760 78.317,18.400 78.807,18.400 79.088 C 18.400 79.370,18.220 79.600,18.000 79.600 C 17.780 79.600,17.600 79.870,17.600 80.200 C 17.600 80.530,17.420 80.800,17.200 80.800 C 16.980 80.800,16.800 81.078,16.800 81.417 C 16.800 81.756,16.440 82.420,16.000 82.892 C 15.560 83.364,15.200 83.987,15.200 84.275 C 15.200 84.564,15.020 84.800,14.800 84.800 C 14.580 84.800,14.400 85.160,14.400 85.600 C 14.400 86.040,14.220 86.400,14.000 86.400 C 13.780 86.400,13.600 86.760,13.600 87.200 C 13.600 87.640,13.448 88.000,13.263 88.000 C 13.077 88.000,12.555 88.765,12.102 89.700 C 9.747 94.563,8.400 97.654,8.400 98.195 C 8.400 98.528,8.220 98.800,8.000 98.800 C 7.780 98.800,7.600 99.340,7.600 100.000 C 7.600 100.660,7.420 101.200,7.200 101.200 C 6.980 101.200,6.800 101.740,6.800 102.400 C 6.800 103.060,6.620 103.600,6.400 103.600 C 6.180 103.600,6.000 104.140,6.000 104.800 C 6.000 105.460,5.820 106.000,5.600 106.000 C 5.380 106.000,5.200 106.360,5.200 106.800 C 5.200 107.240,5.020 107.600,4.800 107.600 C 4.580 107.600,4.400 108.230,4.400 109.000 C 4.400 109.770,4.220 110.400,4.000 110.400 C 3.780 110.400,3.600 111.120,3.600 112.000 C 3.600 112.880,3.420 113.600,3.200 113.600 C 2.980 113.600,2.800 114.219,2.800 114.976 C 2.800 115.733,2.620 116.464,2.400 116.600 C 2.180 116.736,2.000 117.557,2.000 118.424 C 2.000 119.291,1.820 120.000,1.600 120.000 C 1.378 120.000,1.200 121.056,1.200 122.367 C 1.200 123.853,1.021 124.793,0.719 124.894 C 0.069 125.110,-0.222 152.142,0.363 158.000 C 0.966 164.030,1.235 165.750,1.641 166.180 C 1.838 166.389,2.000 167.424,2.000 168.480 C 2.000 169.536,2.180 170.400,2.400 170.400 C 2.620 170.400,2.800 171.030,2.800 171.800 C 2.800 172.570,2.980 173.200,3.200 173.200 C 3.420 173.200,3.600 173.830,3.600 174.600 C 3.600 175.370,3.780 176.000,4.000 176.000 C 4.220 176.000,4.400 176.540,4.400 177.200 C 4.400 177.860,4.580 178.400,4.800 178.400 C 5.020 178.400,5.200 179.019,5.200 179.776 C 5.200 180.533,5.380 181.264,5.600 181.400 C 5.820 181.536,6.000 181.997,6.000 182.424 C 6.000 182.851,6.180 183.200,6.400 183.200 C 6.620 183.200,6.800 183.740,6.800 184.400 C 6.800 185.060,6.980 185.600,7.200 185.600 C 7.420 185.600,7.600 185.960,7.600 186.400 C 7.600 186.840,7.780 187.200,8.000 187.200 C 8.220 187.200,8.399 187.515,8.398 187.900 C 8.395 188.909,9.699 192.400,10.079 192.400 C 10.256 192.400,10.400 192.760,10.400 193.200 C 10.400 193.640,10.580 194.000,10.800 194.000 C 11.020 194.000,11.200 194.360,11.200 194.800 C 11.200 195.240,11.380 195.600,11.600 195.600 C 11.820 195.600,12.000 195.960,12.000 196.400 C 12.000 196.840,12.180 197.200,12.400 197.200 C 12.620 197.200,12.800 197.560,12.800 198.000 C 12.800 198.440,12.980 198.800,13.200 198.800 C 13.420 198.800,13.600 199.160,13.600 199.600 C 13.600 200.040,13.780 200.400,14.000 200.400 C 14.220 200.400,14.400 200.760,14.400 201.200 C 14.400 201.640,14.580 202.000,14.800 202.000 C 15.020 202.000,15.200 202.236,15.200 202.525 C 15.200 202.813,15.560 203.436,16.000 203.908 C 16.440 204.380,16.800 205.044,16.800 205.383 C 16.800 205.722,16.936 206.000,17.102 206.000 C 17.269 206.000,17.664 206.585,17.980 207.300 C 18.297 208.015,18.880 208.949,19.278 209.375 C 19.675 209.802,20.000 210.387,20.000 210.675 C 20.000 210.964,20.180 211.200,20.400 211.200 C 20.620 211.200,20.800 211.560,20.800 212.000 C 20.800 212.440,20.980 212.800,21.200 212.800 C 21.420 212.800,21.600 213.160,21.600 213.600 C 21.600 214.040,21.780 214.400,22.000 214.400 C 22.220 214.400,22.400 214.760,22.400 215.200 C 22.400 215.640,22.580 216.000,22.800 216.000 C 23.020 216.000,23.200 216.360,23.200 216.800 C 23.200 217.240,23.380 217.600,23.600 217.600 C 23.820 217.600,24.000 217.945,24.000 218.367 C 24.000 218.788,24.135 219.193,24.300 219.267 C 24.465 219.340,25.320 220.840,26.200 222.600 C 27.080 224.360,27.935 225.860,28.100 225.933 C 28.265 226.007,28.400 226.412,28.400 226.833 C 28.400 227.255,28.580 227.600,28.800 227.600 C 29.020 227.600,29.200 227.960,29.200 228.400 C 29.200 228.840,29.380 229.200,29.600 229.200 C 29.820 229.200,30.000 229.560,30.000 230.000 C 30.000 230.440,30.180 230.800,30.400 230.800 C 30.620 230.800,30.800 231.160,30.800 231.600 C 30.800 232.040,30.980 232.400,31.200 232.400 C 31.420 232.400,31.600 232.760,31.600 233.200 C 31.600 233.640,31.780 234.000,32.000 234.000 C 32.220 234.000,32.400 234.360,32.400 234.800 C 32.400 235.240,32.580 235.600,32.800 235.600 C 33.020 235.600,33.200 235.935,33.200 236.344 C 33.200 237.146,35.605 242.113,36.100 242.333 C 36.265 242.407,36.400 242.992,36.400 243.633 C 36.400 244.275,36.580 244.800,36.800 244.800 C 37.020 244.800,37.200 245.160,37.200 245.600 C 37.200 246.040,37.380 246.400,37.600 246.400 C 37.820 246.400,38.000 246.760,38.000 247.200 C 38.000 247.640,38.180 248.000,38.400 248.000 C 38.620 248.000,38.800 248.360,38.800 248.800 C 38.800 249.240,38.980 249.600,39.200 249.600 C 39.420 249.600,39.600 250.140,39.600 250.800 C 39.600 251.460,39.780 252.000,40.000 252.000 C 40.220 252.000,40.400 252.360,40.400 252.800 C 40.400 253.240,40.580 253.600,40.800 253.600 C 41.020 253.600,41.200 254.129,41.200 254.776 C 41.200 255.423,41.364 256.054,41.565 256.178 C 41.766 256.303,42.052 257.123,42.200 258.002 C 42.349 258.881,42.634 259.600,42.835 259.600 C 43.036 259.600,43.200 260.140,43.200 260.800 C 43.200 261.460,43.380 262.000,43.600 262.000 C 43.820 262.000,44.000 262.362,44.000 262.805 C 44.000 263.248,44.180 263.968,44.400 264.405 C 44.620 264.842,44.980 265.558,45.200 265.995 C 45.420 266.432,45.600 267.152,45.600 267.595 C 45.600 268.038,45.780 268.400,46.000 268.400 C 46.220 268.400,46.400 268.839,46.400 269.376 C 46.400 269.913,46.580 270.464,46.800 270.600 C 47.020 270.736,47.200 271.287,47.200 271.824 C 47.200 272.361,47.380 272.800,47.600 272.800 C 47.820 272.800,48.000 273.340,48.000 274.000 C 48.000 274.660,48.180 275.200,48.400 275.200 C 48.620 275.200,48.800 275.729,48.800 276.376 C 48.800 277.023,48.980 277.664,49.200 277.800 C 49.420 277.936,49.600 278.667,49.600 279.424 C 49.600 280.181,49.780 280.800,50.000 280.800 C 50.220 280.800,50.400 281.340,50.400 282.000 C 50.400 282.660,50.580 283.200,50.800 283.200 C 51.020 283.200,51.200 283.740,51.200 284.400 C 51.200 285.060,51.380 285.600,51.600 285.600 C 51.820 285.600,52.000 286.219,52.000 286.976 C 52.000 287.733,52.180 288.464,52.400 288.600 C 52.620 288.736,52.800 289.276,52.800 289.800 C 52.800 290.324,52.980 290.864,53.200 291.000 C 53.420 291.136,53.600 291.766,53.600 292.400 C 53.600 293.034,53.780 293.664,54.000 293.800 C 54.220 293.936,54.400 294.577,54.400 295.224 C 54.400 295.871,54.580 296.400,54.800 296.400 C 55.020 296.400,55.200 296.940,55.200 297.600 C 55.200 298.260,55.380 298.800,55.600 298.800 C 55.820 298.800,56.000 299.340,56.000 300.000 C 56.000 300.660,56.180 301.200,56.400 301.200 C 56.620 301.200,56.800 301.740,56.800 302.400 C 56.800 303.060,56.980 303.600,57.200 303.600 C 57.420 303.600,57.600 304.050,57.600 304.600 C 57.600 305.150,57.756 305.600,57.948 305.600 C 58.139 305.600,58.391 306.191,58.508 306.912 C 58.625 307.634,59.279 309.376,59.961 310.783 C 60.642 312.190,61.200 313.580,61.200 313.871 C 61.200 314.162,61.380 314.400,61.600 314.400 C 61.820 314.400,62.000 314.745,62.000 315.167 C 62.000 315.588,62.135 315.993,62.300 316.067 C 62.676 316.234,63.975 318.364,64.271 319.300 C 64.393 319.685,64.652 320.000,64.847 320.000 C 65.041 320.000,65.200 320.360,65.200 320.800 C 65.200 321.240,65.380 321.600,65.600 321.600 C 65.820 321.600,66.000 321.836,66.000 322.125 C 66.000 322.413,66.360 323.036,66.800 323.508 C 67.240 323.980,67.600 324.514,67.600 324.695 C 67.600 324.876,67.960 325.283,68.400 325.600 C 68.840 325.917,69.200 326.457,69.200 326.800 C 69.200 327.143,69.560 327.683,70.000 328.000 C 70.440 328.317,70.800 328.785,70.800 329.040 C 70.800 329.295,71.520 330.245,72.400 331.152 C 73.280 332.059,74.000 332.989,74.000 333.219 C 74.000 333.448,74.405 334.052,74.900 334.559 C 75.395 335.067,76.520 336.339,77.400 337.387 C 79.873 340.331,83.254 343.717,84.800 344.799 C 85.570 345.337,87.043 346.638,88.074 347.689 C 89.105 348.740,90.158 349.600,90.414 349.600 C 90.670 349.600,91.383 350.140,92.000 350.800 C 92.617 351.460,93.279 352.000,93.472 352.000 C 93.665 352.000,94.083 352.360,94.400 352.800 C 94.717 353.240,95.162 353.600,95.388 353.601 C 95.615 353.601,96.430 354.141,97.200 354.800 C 97.970 355.459,98.825 355.999,99.100 355.999 C 99.375 356.000,99.600 356.180,99.600 356.400 C 99.600 356.620,99.960 356.800,100.400 356.800 C 100.840 356.800,101.200 356.941,101.200 357.114 C 101.200 357.286,102.277 357.961,103.593 358.614 C 104.910 359.266,105.990 359.935,105.993 360.100 C 105.997 360.265,106.360 360.400,106.800 360.400 C 107.240 360.400,107.600 360.580,107.600 360.800 C 107.600 361.020,107.960 361.200,108.400 361.200 C 108.840 361.200,109.200 361.380,109.200 361.600 C 109.200 361.820,109.560 362.000,110.000 362.000 C 110.440 362.000,110.800 362.180,110.800 362.400 C 110.800 362.620,111.160 362.800,111.600 362.800 C 112.040 362.800,112.400 362.980,112.400 363.200 C 112.400 363.420,112.850 363.600,113.400 363.600 C 113.950 363.600,114.400 363.780,114.400 364.000 C 114.400 364.220,114.760 364.400,115.200 364.400 C 115.640 364.400,116.000 364.580,116.000 364.800 C 116.000 365.020,116.540 365.200,117.200 365.200 C 117.860 365.200,118.400 365.380,118.400 365.600 C 118.400 365.820,118.749 366.000,119.176 366.000 C 119.603 366.000,120.064 366.180,120.200 366.400 C 120.336 366.620,120.887 366.800,121.424 366.800 C 121.961 366.800,122.400 366.980,122.400 367.200 C 122.400 367.420,122.940 367.600,123.600 367.600 C 124.260 367.600,124.800 367.780,124.800 368.000 C 124.800 368.220,125.430 368.400,126.200 368.400 C 126.970 368.400,127.600 368.580,127.600 368.800 C 127.600 369.020,128.320 369.200,129.200 369.200 C 130.080 369.200,130.800 369.380,130.800 369.600 C 130.800 369.820,131.419 370.000,132.176 370.000 C 132.933 370.000,133.664 370.180,133.800 370.400 C 133.936 370.620,134.937 370.800,136.024 370.800 C 137.111 370.800,138.000 370.980,138.000 371.200 C 138.000 371.422,139.067 371.600,140.400 371.600 C 141.720 371.600,142.800 371.763,142.800 371.961 C 142.800 373.162,173.756 373.173,174.980 371.973 C 175.189 371.768,176.404 371.600,177.680 371.600 C 178.960 371.600,180.000 371.421,180.000 371.200 C 180.000 370.980,180.900 370.800,182.000 370.800 C 183.100 370.800,184.000 370.620,184.000 370.400 C 184.000 370.180,184.810 370.000,185.800 370.000 C 186.790 370.000,187.600 369.820,187.600 369.600 C 187.600 369.380,188.129 369.200,188.776 369.200 C 189.423 369.200,190.064 369.020,190.200 368.800 C 190.336 368.580,191.067 368.400,191.824 368.400 C 192.581 368.400,193.200 368.220,193.200 368.000 C 193.200 367.780,193.740 367.600,194.400 367.600 C 195.060 367.600,195.600 367.420,195.600 367.200 C 195.600 366.980,196.140 366.800,196.800 366.800 C 197.460 366.800,198.000 366.620,198.000 366.400 C 198.000 366.180,198.540 366.000,199.200 366.000 C 199.860 366.000,200.400 365.820,200.400 365.600 C 200.400 365.380,200.760 365.200,201.200 365.200 C 201.640 365.200,202.000 365.020,202.000 364.800 C 202.000 364.580,202.540 364.400,203.200 364.400 C 203.860 364.400,204.400 364.220,204.400 364.000 C 204.400 363.780,204.760 363.600,205.200 363.600 C 205.640 363.600,206.000 363.420,206.000 363.200 C 206.000 362.980,206.450 362.800,207.000 362.800 C 207.550 362.800,208.000 362.620,208.000 362.400 C 208.000 362.180,208.360 362.000,208.800 362.000 C 209.240 362.000,209.600 361.820,209.600 361.600 C 209.600 361.380,209.960 361.200,210.400 361.200 C 210.840 361.200,211.200 361.020,211.200 360.800 C 211.200 360.580,211.560 360.400,212.000 360.400 C 212.440 360.400,212.800 360.220,212.800 360.000 C 212.800 359.780,213.160 359.600,213.600 359.600 C 214.040 359.600,214.400 359.420,214.400 359.200 C 214.400 358.980,214.687 358.800,215.038 358.800 C 215.608 358.800,217.883 357.717,218.400 357.200 C 218.510 357.090,219.410 356.563,220.400 356.030 C 221.390 355.496,222.290 354.956,222.400 354.829 C 222.510 354.702,223.107 354.337,223.726 354.018 C 224.345 353.698,225.379 352.934,226.022 352.319 C 226.666 351.703,227.425 351.200,227.708 351.200 C 227.991 351.200,228.483 350.840,228.800 350.400 C 229.117 349.960,229.585 349.600,229.840 349.600 C 230.095 349.600,231.015 348.925,231.885 348.100 C 234.389 345.724,236.688 344.849,237.400 346.000 C 237.536 346.220,238.087 346.400,238.624 346.400 C 239.161 346.400,239.600 346.580,239.600 346.800 C 239.600 347.020,240.140 347.200,240.800 347.200 C 241.460 347.200,242.001 347.335,242.003 347.500 C 242.007 347.906,243.986 348.800,244.880 348.800 C 245.276 348.800,245.600 348.980,245.600 349.200 C 245.600 349.420,245.949 349.600,246.376 349.600 C 246.803 349.600,247.264 349.780,247.400 350.000 C 247.536 350.220,248.087 350.400,248.624 350.400 C 249.161 350.400,249.600 350.580,249.600 350.800 C 249.600 351.020,249.949 351.200,250.376 351.200 C 250.803 351.200,251.264 351.380,251.400 351.600 C 251.536 351.820,252.087 352.000,252.624 352.000 C 253.161 352.000,253.600 352.180,253.600 352.400 C 253.600 352.620,254.140 352.800,254.800 352.800 C 255.460 352.800,256.000 352.980,256.000 353.200 C 256.000 353.420,256.540 353.600,257.200 353.600 C 257.860 353.600,258.400 353.780,258.400 354.000 C 258.400 354.220,258.839 354.400,259.376 354.400 C 259.913 354.400,260.464 354.580,260.600 354.800 C 260.736 355.020,261.287 355.200,261.824 355.200 C 262.361 355.200,262.800 355.360,262.800 355.556 C 262.800 355.898,263.922 356.166,267.400 356.656 C 268.280 356.780,269.171 357.044,269.380 357.241 C 269.589 357.438,270.343 357.600,271.056 357.600 C 271.769 357.600,272.454 357.764,272.578 357.965 C 272.702 358.166,274.963 358.459,277.602 358.616 C 280.241 358.774,282.400 359.060,282.400 359.251 C 282.400 359.701,303.885 359.710,304.162 359.261 C 304.278 359.074,306.573 358.797,309.264 358.645 C 311.954 358.493,314.346 358.217,314.578 358.032 C 314.972 357.717,315.954 357.509,319.703 356.942 C 320.529 356.818,321.305 356.555,321.426 356.358 C 321.548 356.161,322.166 356.000,322.800 356.000 C 323.434 356.000,324.064 355.820,324.200 355.600 C 324.336 355.380,324.876 355.200,325.400 355.200 C 325.924 355.200,326.464 355.020,326.600 354.800 C 326.736 354.580,327.377 354.400,328.024 354.400 C 328.671 354.400,329.200 354.220,329.200 354.000 C 329.200 353.780,329.740 353.600,330.400 353.600 C 331.060 353.600,331.600 353.420,331.600 353.200 C 331.600 352.980,331.960 352.800,332.400 352.800 C 332.840 352.800,333.200 352.620,333.200 352.400 C 333.200 352.180,333.639 352.000,334.176 352.000 C 334.713 352.000,335.264 351.820,335.400 351.600 C 335.536 351.380,335.997 351.200,336.424 351.200 C 336.851 351.200,337.200 351.020,337.200 350.800 C 337.200 350.580,337.560 350.400,338.000 350.400 C 338.440 350.400,338.800 350.220,338.800 350.000 C 338.800 349.780,339.160 349.600,339.600 349.600 C 340.040 349.600,340.400 349.420,340.400 349.200 C 340.400 348.980,340.670 348.800,341.000 348.800 C 341.330 348.800,341.600 348.620,341.600 348.400 C 341.600 348.180,341.960 348.000,342.400 348.000 C 342.840 348.000,343.200 347.820,343.200 347.600 C 343.200 347.380,343.560 347.200,344.000 347.200 C 344.440 347.200,344.800 347.020,344.800 346.800 C 344.800 346.580,345.160 346.400,345.600 346.400 C 346.040 346.400,346.400 346.220,346.400 346.000 C 346.400 345.780,346.760 345.600,347.200 345.600 C 347.640 345.600,348.000 345.420,348.000 345.200 C 348.000 344.980,348.270 344.800,348.600 344.800 C 348.930 344.800,349.200 344.620,349.200 344.400 C 349.200 344.180,349.470 344.000,349.800 344.000 C 350.130 344.000,350.400 343.820,350.400 343.600 C 350.400 343.380,350.720 343.200,351.112 343.200 C 351.503 343.200,352.083 342.840,352.400 342.400 C 352.717 341.960,353.220 341.600,353.518 341.600 C 354.172 341.600,359.582 337.588,361.744 335.500 C 362.598 334.675,363.461 334.000,363.663 334.000 C 364.172 334.000,375.200 322.868,375.200 322.354 C 375.200 322.125,375.920 321.246,376.800 320.400 C 377.680 319.554,378.400 318.651,378.400 318.392 C 378.400 318.133,378.940 317.417,379.600 316.800 C 380.260 316.183,380.800 315.431,380.800 315.128 C 380.800 314.825,381.160 314.317,381.600 314.000 C 382.040 313.683,382.400 313.143,382.400 312.800 C 382.400 312.457,382.760 311.917,383.200 311.600 C 383.640 311.283,384.000 310.769,384.000 310.459 C 384.000 310.148,384.329 309.603,384.730 309.247 C 385.132 308.891,385.716 308.015,386.028 307.300 C 386.340 306.585,386.731 306.000,386.898 306.000 C 387.064 306.000,387.200 305.640,387.200 305.200 C 387.200 304.760,387.359 304.400,387.554 304.400 C 387.749 304.400,388.219 303.725,388.598 302.900 C 388.977 302.075,389.538 300.877,389.844 300.239 C 390.150 299.600,390.400 298.835,390.400 298.539 C 390.400 298.242,390.564 298.000,390.765 298.000 C 390.966 298.000,391.251 297.280,391.400 296.400 C 391.549 295.520,391.834 294.800,392.035 294.800 C 392.236 294.800,392.400 294.440,392.400 294.000 C 392.400 293.560,392.580 293.200,392.800 293.200 C 393.020 293.200,393.200 292.761,393.200 292.224 C 393.200 291.687,393.380 291.136,393.600 291.000 C 393.820 290.864,394.000 290.313,394.000 289.776 C 394.000 289.239,394.180 288.800,394.400 288.800 C 394.620 288.800,394.800 288.350,394.800 287.800 C 394.800 287.250,394.980 286.800,395.200 286.800 C 395.420 286.800,395.600 286.170,395.600 285.400 C 395.600 284.630,395.780 284.000,396.000 284.000 C 396.220 284.000,396.400 283.460,396.400 282.800 C 396.400 282.140,396.580 281.600,396.800 281.600 C 397.020 281.600,397.200 280.880,397.200 280.000 C 397.200 279.120,397.380 278.400,397.600 278.400 C 397.820 278.400,398.000 277.601,398.000 276.624 C 398.000 275.647,398.180 274.736,398.400 274.600 C 398.620 274.464,398.800 273.568,398.800 272.610 C 398.800 271.571,399.002 270.799,399.300 270.700 C 399.697 270.568,399.800 256.871,399.800 204.000 C 399.800 151.129,399.697 137.432,399.300 137.300 C 398.964 137.188,398.800 136.224,398.800 134.367 C 398.800 132.789,398.628 131.600,398.400 131.600 C 398.180 131.600,398.000 130.700,398.000 129.600 C 398.000 128.500,397.820 127.600,397.600 127.600 C 397.380 127.600,397.200 126.790,397.200 125.800 C 397.200 124.810,397.020 124.000,396.800 124.000 C 396.580 124.000,396.400 123.100,396.400 122.000 C 396.400 120.900,396.220 120.000,396.000 120.000 C 395.780 120.000,395.600 119.460,395.600 118.800 C 395.600 118.140,395.420 117.600,395.200 117.600 C 394.980 117.600,394.800 116.880,394.800 116.000 C 394.800 115.120,394.620 114.400,394.400 114.400 C 394.180 114.400,394.000 113.860,394.000 113.200 C 394.000 112.540,393.820 112.000,393.600 112.000 C 393.380 112.000,393.200 111.370,393.200 110.600 C 393.200 109.830,393.020 109.200,392.800 109.200 C 392.580 109.200,392.400 108.660,392.400 108.000 C 392.400 107.340,392.220 106.800,392.000 106.800 C 391.780 106.800,391.599 106.305,391.598 105.700 C 391.596 105.095,391.326 104.084,390.998 103.454 C 390.669 102.824,390.394 102.104,390.387 101.854 C 390.381 101.604,389.841 100.325,389.187 99.010 C 388.534 97.696,388.000 96.391,388.000 96.110 C 388.000 95.830,387.854 95.600,387.675 95.600 C 387.496 95.600,387.102 94.970,386.800 94.200 C 386.498 93.430,386.104 92.800,385.925 92.800 C 385.746 92.800,385.600 92.564,385.600 92.275 C 385.600 91.987,385.240 91.364,384.800 90.892 C 384.360 90.420,384.000 89.756,384.000 89.417 C 384.000 89.078,383.850 88.800,383.668 88.800 C 383.485 88.800,383.081 88.305,382.770 87.700 C 382.460 87.095,381.889 86.309,381.503 85.953 C 381.116 85.597,380.800 85.052,380.800 84.741 C 380.800 84.431,380.440 83.917,380.000 83.600 C 379.560 83.283,379.200 82.815,379.200 82.560 C 379.200 82.305,378.480 81.355,377.600 80.448 C 376.720 79.541,376.000 78.704,376.000 78.589 C 376.000 77.961,366.563 68.400,365.944 68.400 C 365.720 68.400,364.846 67.680,364.000 66.800 C 363.154 65.920,362.245 65.200,361.978 65.200 C 361.712 65.200,361.203 64.866,360.847 64.457 C 359.888 63.355,352.860 58.829,351.648 58.533 C 351.072 58.392,350.510 58.170,350.400 58.038 C 350.004 57.566,348.398 56.800,347.805 56.800 C 347.472 56.800,347.200 56.620,347.200 56.400 C 347.200 56.180,346.840 56.000,346.400 56.000 C 345.960 56.000,345.600 55.820,345.600 55.600 C 345.600 55.380,345.240 55.200,344.800 55.200 C 344.360 55.200,344.000 55.020,344.000 54.800 C 344.000 54.580,343.640 54.400,343.200 54.400 C 342.760 54.400,342.400 54.220,342.400 54.000 C 342.400 53.780,341.961 53.600,341.424 53.600 C 340.887 53.600,340.336 53.420,340.200 53.200 C 340.064 52.980,339.513 52.800,338.976 52.800 C 338.439 52.800,338.000 52.620,338.000 52.400 C 338.000 52.180,337.550 52.000,337.000 52.000 C 336.450 52.000,336.000 51.820,336.000 51.600 C 336.000 51.380,335.370 51.200,334.600 51.200 C 333.830 51.200,333.200 51.020,333.200 50.800 C 333.200 50.580,332.581 50.400,331.824 50.400 C 331.067 50.400,330.336 50.220,330.200 50.000 C 330.064 49.780,329.243 49.600,328.376 49.600 C 327.509 49.600,326.800 49.420,326.800 49.200 C 326.800 48.980,326.001 48.800,325.024 48.800 C 324.047 48.800,323.136 48.620,323.000 48.400 C 322.864 48.180,321.424 48.000,319.800 48.000 C 318.176 48.000,316.736 47.820,316.600 47.600 C 316.267 47.061,301.733 47.061,301.400 47.600 C 301.264 47.820,299.554 48.000,297.600 48.000 C 295.646 48.000,293.936 48.180,293.800 48.400 C 293.664 48.620,292.663 48.800,291.576 48.800 C 290.489 48.800,289.600 48.980,289.600 49.200 C 289.600 49.420,288.700 49.600,287.600 49.600 C 286.500 49.600,285.600 49.780,285.600 50.000 C 285.600 50.220,285.060 50.400,284.400 50.400 C 283.740 50.400,283.200 50.580,283.200 50.800 C 283.200 51.020,282.660 51.200,282.000 51.200 C 281.340 51.200,280.800 51.380,280.800 51.600 C 280.800 51.820,280.260 52.000,279.600 52.000 C 278.940 52.000,278.400 52.180,278.400 52.400 C 278.400 52.620,277.871 52.800,277.224 52.800 C 276.577 52.800,275.936 52.980,275.800 53.200 C 275.664 53.420,275.203 53.600,274.776 53.600 C 274.349 53.600,274.000 53.780,274.000 54.000 C 274.000 54.220,273.640 54.400,273.200 54.400 C 272.760 54.400,272.400 54.580,272.400 54.800 C 272.400 55.020,272.040 55.200,271.600 55.200 C 271.160 55.200,270.800 55.380,270.800 55.600 C 270.800 55.820,270.440 56.000,270.000 56.000 C 269.560 56.000,269.200 56.180,269.200 56.400 C 269.200 56.620,268.761 56.800,268.224 56.800 C 267.687 56.800,267.136 56.980,267.000 57.200 C 266.864 57.420,266.486 57.600,266.160 57.600 C 265.833 57.600,265.349 57.786,265.083 58.013 C 264.398 58.600,259.956 61.200,259.640 61.200 C 259.495 61.200,259.117 61.560,258.800 62.000 C 258.483 62.440,257.903 62.800,257.512 62.800 C 257.120 62.800,256.800 62.950,256.800 63.132 C 256.800 63.315,256.305 63.720,255.700 64.032 C 255.095 64.345,253.939 65.275,253.131 66.100 C 252.324 66.925,251.473 67.600,251.242 67.600 C 250.636 67.600,238.800 79.506,238.800 80.114 C 238.800 80.394,238.440 80.883,238.000 81.200 C 237.560 81.517,237.200 81.980,237.200 82.229 C 237.200 82.478,236.660 83.246,236.000 83.937 C 235.340 84.628,234.800 85.392,234.800 85.636 C 234.800 85.880,234.260 86.583,233.600 87.200 C 232.940 87.817,232.400 88.609,232.400 88.960 C 232.400 89.312,232.242 89.600,232.049 89.600 C 231.855 89.600,231.473 90.140,231.200 90.800 C 230.927 91.460,230.545 92.000,230.351 92.000 C 230.158 92.000,230.000 92.188,230.000 92.417 C 230.000 93.541,228.082 94.940,227.432 94.290 C 227.085 93.942,226.800 93.548,226.800 93.414 C 226.800 93.157,226.013 92.251,223.395 89.492 C 222.512 88.561,221.346 87.170,220.804 86.400 C 220.263 85.630,218.780 83.975,217.510 82.722 C 216.239 81.469,215.200 80.346,215.200 80.227 C 215.200 79.679,212.063 76.353,210.083 74.800 C 209.381 74.250,208.806 73.562,208.804 73.271 C 208.802 72.981,208.575 72.496,208.300 72.195 C 208.025 71.894,206.630 70.345,205.200 68.754 C 200.644 63.682,193.692 56.800,193.125 56.800 C 192.823 56.800,192.312 56.413,191.988 55.941 C 191.665 55.468,190.880 54.613,190.244 54.041 C 189.609 53.468,188.856 52.775,188.573 52.500 C 188.289 52.225,187.953 52.000,187.825 52.000 C 187.697 52.000,187.028 51.460,186.337 50.800 C 185.646 50.140,184.878 49.600,184.629 49.600 C 184.380 49.600,183.917 49.240,183.600 48.800 C 183.283 48.360,182.785 48.000,182.494 48.000 C 182.202 48.000,181.528 47.564,180.995 47.031 C 180.462 46.498,179.660 45.946,179.213 45.804 C 178.766 45.662,178.400 45.378,178.400 45.173 C 178.400 44.968,178.040 44.800,177.600 44.800 C 177.160 44.800,176.800 44.660,176.800 44.489 C 176.800 44.317,175.450 43.474,173.800 42.613 C 172.150 41.753,170.800 40.903,170.800 40.725 C 170.800 40.546,170.440 40.400,170.000 40.400 C 169.560 40.400,169.200 40.220,169.200 40.000 C 169.200 39.780,168.840 39.600,168.400 39.600 C 167.960 39.600,167.600 39.420,167.600 39.200 C 167.600 38.980,167.328 38.800,166.995 38.800 C 166.662 38.800,166.032 38.620,165.595 38.400 C 165.158 38.180,164.442 37.820,164.005 37.600 C 163.568 37.380,162.938 37.200,162.605 37.200 C 162.272 37.200,162.000 37.020,162.000 36.800 C 162.000 36.580,161.640 36.400,161.200 36.400 C 160.760 36.400,160.400 36.220,160.400 36.000 C 160.400 35.780,160.040 35.600,159.600 35.600 C 159.160 35.600,158.800 35.420,158.800 35.200 C 158.800 34.980,158.260 34.800,157.600 34.800 C 156.940 34.800,156.400 34.620,156.400 34.400 C 156.400 34.180,155.950 34.000,155.400 34.000 C 154.850 34.000,154.400 33.820,154.400 33.600 C 154.400 33.380,153.860 33.200,153.200 33.200 C 152.540 33.200,152.000 33.020,152.000 32.800 C 152.000 32.580,151.460 32.400,150.800 32.400 C 150.140 32.400,149.600 32.220,149.600 32.000 C 149.600 31.780,148.880 31.600,148.000 31.600 C 147.120 31.600,146.400 31.420,146.400 31.200 C 146.400 30.980,145.680 30.800,144.800 30.800 C 143.920 30.800,143.200 30.620,143.200 30.400 C 143.200 30.180,142.581 30.000,141.824 30.000 C 141.067 30.000,140.336 29.820,140.200 29.600 C 140.064 29.380,139.164 29.200,138.200 29.200 C 137.236 29.200,136.336 29.020,136.200 28.800 C 136.064 28.580,134.793 28.400,133.376 28.400 C 131.959 28.400,130.800 28.231,130.800 28.025 C 130.800 27.340,108.979 26.541,108.000 27.190 M123.200 43.610 C 130.870 44.142,135.833 44.971,142.000 46.751 C 142.770 46.973,144.030 47.324,144.800 47.531 C 146.286 47.931,147.299 48.269,148.600 48.798 C 149.040 48.977,150.930 49.708,152.800 50.423 C 158.590 52.635,169.213 58.376,172.605 61.126 C 172.827 61.306,173.298 61.622,173.651 61.827 C 178.949 64.911,187.546 73.379,200.629 88.400 C 203.024 91.150,205.259 93.670,205.595 94.000 C 205.931 94.330,207.375 95.948,208.803 97.597 C 210.231 99.245,211.966 101.225,212.659 101.997 C 214.674 104.243,220.500 111.255,221.802 113.000 C 222.458 113.880,223.095 114.690,223.217 114.800 C 223.339 114.910,223.871 115.630,224.400 116.400 C 224.929 117.170,225.461 117.890,225.582 118.000 C 226.882 119.180,237.600 135.125,237.600 135.878 C 237.600 135.987,237.939 136.554,238.353 137.138 C 238.767 137.722,239.487 138.875,239.953 139.700 C 240.419 140.525,241.188 141.875,241.663 142.700 C 244.040 146.833,250.456 159.901,252.220 164.200 C 252.581 165.080,253.147 166.430,253.479 167.200 C 254.098 168.639,254.541 169.728,255.146 171.300 C 255.337 171.795,255.679 172.650,255.906 173.200 C 256.133 173.750,256.536 174.830,256.800 175.600 C 257.064 176.370,257.422 177.360,257.595 177.800 C 257.767 178.240,258.142 179.410,258.426 180.400 C 258.711 181.390,259.066 182.380,259.214 182.600 C 259.568 183.124,259.918 184.343,262.372 193.600 C 263.866 199.238,265.417 207.507,266.404 215.100 C 268.454 230.884,266.411 255.039,261.565 272.300 C 260.557 275.890,260.320 276.662,260.000 277.400 C 259.809 277.840,259.269 279.370,258.800 280.800 C 258.331 282.230,257.797 283.760,257.614 284.200 C 257.431 284.640,257.064 285.630,256.800 286.400 C 256.109 288.413,255.945 288.780,252.825 295.327 C 251.271 298.587,250.000 301.353,250.000 301.475 C 250.000 302.025,243.553 312.496,242.781 313.200 C 242.660 313.310,242.130 314.030,241.602 314.800 C 238.430 319.431,231.421 327.000,226.000 331.650 C 222.856 334.347,216.531 339.200,216.160 339.200 C 216.041 339.200,215.191 339.718,214.270 340.352 C 213.349 340.985,211.922 341.885,211.098 342.352 C 210.274 342.818,208.925 343.590,208.100 344.066 C 202.984 347.018,193.332 351.055,188.000 352.473 C 187.230 352.678,185.970 353.029,185.200 353.253 C 179.624 354.876,173.225 355.902,165.600 356.393 C 155.063 357.073,145.274 356.385,137.200 354.395 C 136.430 354.206,134.900 353.836,133.800 353.573 C 126.514 351.833,116.207 347.427,109.888 343.350 C 108.396 342.387,107.016 341.600,106.821 341.600 C 106.626 341.600,106.407 341.455,106.333 341.277 C 106.260 341.099,105.300 340.342,104.200 339.596 C 103.100 338.849,101.996 338.049,101.747 337.819 C 101.498 337.589,100.508 336.781,99.547 336.025 C 98.586 335.269,95.802 332.659,93.360 330.225 C 80.596 317.506,74.401 306.209,68.009 284.000 C 67.534 282.350,66.996 280.550,66.814 280.000 C 66.632 279.450,66.092 277.650,65.614 276.000 C 65.136 274.350,64.599 272.550,64.419 272.000 C 64.240 271.450,63.871 270.190,63.601 269.200 C 63.330 268.210,62.967 267.040,62.795 266.600 C 62.622 266.160,62.264 265.170,62.000 264.400 C 61.736 263.630,61.357 262.595,61.160 262.100 C 60.962 261.605,60.638 260.795,60.439 260.300 C 60.018 259.252,59.028 256.583,56.986 251.000 C 55.311 246.419,53.408 241.756,51.681 238.000 C 51.024 236.570,50.086 234.500,49.598 233.400 C 49.110 232.300,48.303 230.500,47.805 229.400 C 47.308 228.300,46.503 226.500,46.017 225.400 C 45.532 224.300,44.939 223.040,44.699 222.600 C 44.459 222.160,43.645 220.630,42.890 219.200 C 42.135 217.770,40.659 214.980,39.610 213.000 C 38.562 211.020,36.848 207.780,35.801 205.800 C 34.755 203.820,33.227 201.030,32.405 199.600 C 23.775 184.591,20.031 175.474,17.538 163.400 C 15.186 152.013,14.997 138.024,17.033 126.000 C 18.824 115.417,23.188 103.088,28.013 94.980 C 28.805 93.649,29.559 92.299,29.689 91.980 C 31.710 87.014,44.760 71.833,51.800 66.259 C 53.120 65.213,54.536 64.081,54.947 63.742 C 59.588 59.920,71.321 53.233,78.000 50.606 C 80.090 49.783,82.160 48.967,82.600 48.791 C 83.961 48.249,84.945 47.923,86.400 47.531 C 87.170 47.324,88.430 46.973,89.200 46.751 C 96.681 44.592,111.901 42.531,116.400 43.068 C 117.170 43.160,120.230 43.403,123.200 43.610 M314.200 63.808 C 328.208 64.753,342.613 70.532,353.993 79.770 C 363.994 87.890,371.183 97.910,376.400 111.000 C 378.832 117.100,382.167 131.229,383.199 139.800 C 383.438 141.780,383.806 144.605,384.016 146.077 C 384.560 149.874,384.529 259.691,383.983 263.154 C 383.753 264.609,383.378 266.970,383.150 268.400 C 381.757 277.102,377.295 289.668,372.922 297.200 C 363.321 313.737,350.013 326.376,334.200 333.975 C 328.682 336.626,326.479 337.600,325.999 337.600 C 325.774 337.600,325.277 337.771,324.895 337.981 C 324.126 338.403,320.386 339.630,317.600 340.374 C 316.610 340.638,315.260 341.002,314.600 341.183 C 313.940 341.363,312.275 341.711,310.900 341.956 C 309.525 342.200,307.275 342.624,305.900 342.898 C 302.658 343.543,283.342 343.563,280.800 342.924 C 279.810 342.675,277.740 342.258,276.200 341.998 C 274.660 341.737,272.860 341.373,272.200 341.189 C 271.540 341.005,270.190 340.641,269.200 340.381 C 267.167 339.846,265.380 339.277,264.200 338.788 C 263.760 338.606,262.410 338.115,261.200 337.698 C 255.957 335.892,247.887 332.562,247.722 332.138 C 247.624 331.883,247.818 331.343,248.154 330.938 C 253.443 324.551,256.627 320.057,260.296 313.800 C 260.683 313.140,261.090 312.510,261.200 312.400 C 261.790 311.810,266.042 303.441,268.342 298.345 C 270.396 293.794,274.591 282.369,275.666 278.400 C 275.874 277.630,276.227 276.370,276.449 275.600 C 276.822 274.310,277.008 273.579,277.978 269.600 C 278.576 267.147,279.284 263.857,279.613 262.000 C 279.788 261.010,280.140 259.030,280.395 257.600 C 282.832 243.915,282.996 222.268,280.774 207.400 C 280.174 203.382,278.960 196.946,278.399 194.800 C 278.197 194.030,277.741 192.230,277.384 190.800 C 276.745 188.233,276.315 186.642,275.577 184.100 C 275.370 183.385,275.035 182.215,274.833 181.500 C 273.562 177.002,268.356 163.040,265.921 157.600 C 265.478 156.610,264.844 155.170,264.513 154.400 C 260.951 146.121,252.076 129.826,247.169 122.554 C 246.086 120.949,245.200 119.463,245.200 119.251 C 245.200 119.040,245.055 118.807,244.877 118.733 C 244.382 118.529,238.800 110.178,238.800 109.642 C 238.800 109.382,239.880 107.563,241.200 105.600 C 242.520 103.637,243.600 101.926,243.600 101.797 C 243.600 101.542,246.344 97.514,249.730 92.800 C 252.092 89.510,259.666 81.591,262.200 79.760 C 263.080 79.125,263.890 78.492,264.000 78.356 C 264.688 77.499,273.584 72.049,276.645 70.609 C 281.642 68.258,287.597 66.249,292.600 65.225 C 293.920 64.955,295.755 64.569,296.677 64.367 C 297.600 64.165,299.490 63.984,300.877 63.965 C 302.265 63.946,304.300 63.783,305.400 63.604 C 306.500 63.425,308.120 63.342,309.000 63.421 C 309.880 63.500,312.220 63.674,314.200 63.808 M305.917 79.976 C 302.771 80.980,300.744 83.698,300.715 86.953 C 300.629 96.554,314.799 97.092,315.483 87.514 C 315.833 82.610,310.595 78.482,305.917 79.976 M335.060 90.801 C 328.732 93.960,329.250 98.912,336.687 106.351 C 344.223 113.888,347.510 120.426,350.389 133.600 C 350.653 134.810,351.016 136.430,351.195 137.200 C 351.374 137.970,351.724 140.130,351.973 142.000 C 352.221 143.870,352.599 146.618,352.812 148.107 C 353.025 149.597,353.203 160.937,353.206 173.307 C 353.211 190.527,353.333 196.205,353.729 197.529 C 356.063 205.331,366.509 205.066,368.334 197.159 C 369.716 191.170,368.595 148.108,366.804 138.400 C 365.509 131.382,364.567 127.149,363.600 124.000 C 363.431 123.450,363.071 122.190,362.801 121.200 C 362.530 120.210,362.149 118.995,361.954 118.500 C 361.627 117.668,361.442 117.204,360.440 114.700 C 357.729 107.925,352.976 100.925,347.608 95.800 C 346.225 94.480,344.692 93.011,344.200 92.536 C 341.669 90.085,337.920 89.373,335.060 90.801 M194.400 110.272 C 188.770 111.400,187.473 118.753,192.000 123.876 C 192.550 124.499,193.808 125.996,194.795 127.204 C 195.781 128.412,196.701 129.490,196.837 129.600 C 196.973 129.710,199.000 132.410,201.340 135.600 C 203.680 138.790,205.777 141.618,205.999 141.885 C 206.222 142.152,206.612 142.827,206.866 143.385 C 207.120 143.943,207.458 144.400,207.616 144.400 C 207.774 144.400,208.127 144.940,208.400 145.600 C 208.673 146.260,209.025 146.800,209.181 146.800 C 209.337 146.800,209.720 147.290,210.032 147.889 C 210.345 148.488,211.795 150.974,213.256 153.412 C 217.216 160.025,225.200 176.000,225.200 177.312 C 225.200 177.602,225.353 178.011,225.541 178.220 C 226.548 179.343,231.189 192.556,233.192 200.000 C 234.759 205.829,235.234 206.824,237.279 208.575 C 241.807 212.451,249.200 208.851,249.200 202.771 C 249.200 201.402,248.928 200.162,247.539 195.200 C 247.323 194.430,247.002 193.170,246.825 192.400 C 246.472 190.865,245.364 187.462,244.806 186.200 C 244.612 185.760,244.236 184.680,243.971 183.800 C 243.431 182.005,243.098 181.060,242.493 179.600 C 242.265 179.050,241.672 177.520,241.177 176.200 C 240.681 174.880,240.123 173.629,239.938 173.420 C 239.752 173.211,239.600 172.807,239.600 172.522 C 239.600 171.026,228.859 149.471,226.353 145.938 C 225.939 145.354,225.600 144.757,225.600 144.610 C 225.600 144.464,225.060 143.559,224.400 142.600 C 223.740 141.641,223.200 140.741,223.200 140.600 C 223.200 140.172,214.148 127.136,212.089 124.600 C 211.910 124.380,211.322 123.578,210.782 122.817 C 210.242 122.056,209.440 121.052,209.000 120.586 C 208.560 120.119,206.850 118.083,205.200 116.061 C 200.989 110.900,198.344 109.482,194.400 110.272 M243.000 225.749 C 239.195 227.188,237.600 229.336,237.600 233.019 C 237.600 241.239,248.616 243.483,251.781 235.907 C 254.148 230.243,248.474 223.679,243.000 225.749 M215.443 274.265 C 210.815 275.061,208.156 280.820,210.441 285.099 C 213.534 290.894,225.140 290.595,227.935 284.649 C 231.061 277.999,224.662 272.680,215.443 274.265 M299.000 274.235 C 298.560 274.343,297.781 274.521,297.269 274.631 C 293.446 275.452,291.593 281.153,293.724 285.543 C 295.409 289.017,304.297 290.469,308.252 287.917 C 312.865 284.940,312.990 278.220,308.488 275.244 C 307.176 274.377,301.068 273.727,299.000 274.235 M97.507 279.405 C 91.382 283.567,93.674 292.180,101.130 293.024 C 110.181 294.048,115.577 288.897,112.258 282.400 C 110.199 278.370,101.600 276.624,97.507 279.405 M153.497 279.314 C 148.765 282.179,148.571 288.449,153.107 291.909 C 154.948 293.313,163.657 293.600,164.957 292.300 C 165.342 291.915,165.823 291.600,166.026 291.600 C 168.467 291.600,169.662 284.690,167.735 281.717 C 165.517 278.297,157.431 276.932,153.497 279.314 M335.400 302.269 C 332.339 302.774,329.867 306.080,329.867 309.668 C 329.867 318.707,345.685 320.378,348.585 311.645 C 350.710 305.247,344.428 300.779,335.400 302.269 M191.000 306.924 C 185.543 310.175,185.543 317.329,191.000 320.332 C 193.181 321.532,200.579 321.274,202.652 319.925 C 207.230 316.947,207.015 310.071,202.254 307.167 C 200.760 306.257,192.422 306.076,191.000 306.924 M284.419 307.722 C 280.004 309.130,278.010 314.704,280.483 318.727 C 283.471 323.588,293.937 323.743,297.218 318.974 C 301.137 313.278,296.773 307.136,288.881 307.241 C 287.187 307.263,285.178 307.480,284.419 307.722 M141.647 311.989 C 137.921 313.257,136.121 316.252,136.671 320.265 C 137.793 328.453,153.889 328.796,155.414 320.664 C 156.715 313.732,149.634 309.270,141.647 311.989 " stroke="none" fill="#050504" fill-rule="evenodd"></path><path id="path1" d="M113.300 43.894 C 114.345 43.976,116.055 43.976,117.100 43.894 C 118.145 43.812,117.290 43.744,115.200 43.744 C 113.110 43.744,112.255 43.812,113.300 43.894 M302.200 64.413 C 295.155 64.867,285.286 67.242,279.700 69.828 C 273.917 72.505,272.875 73.034,271.328 74.075 C 270.408 74.694,269.463 75.200,269.228 75.200 C 268.993 75.200,268.800 75.350,268.800 75.532 C 268.800 75.715,268.305 76.118,267.700 76.427 C 261.852 79.418,252.035 89.739,245.660 99.600 C 244.308 101.690,243.022 103.617,242.801 103.883 C 242.581 104.149,242.400 104.474,242.400 104.605 C 242.400 104.736,241.680 105.904,240.800 107.200 C 238.887 110.017,238.902 109.850,240.400 111.600 C 241.059 112.370,241.599 113.210,241.599 113.467 C 241.600 113.723,241.751 113.993,241.935 114.067 C 242.560 114.315,250.824 127.012,254.102 132.760 C 257.236 138.255,263.668 150.964,265.562 155.406 C 266.311 157.163,267.346 159.550,267.862 160.712 C 268.378 161.873,268.800 163.001,268.800 163.217 C 268.800 163.434,268.959 163.923,269.153 164.305 C 269.645 165.271,270.179 166.606,271.193 169.400 C 271.672 170.720,272.230 172.113,272.432 172.495 C 272.634 172.877,272.800 173.541,272.800 173.971 C 272.800 174.401,272.980 174.864,273.200 175.000 C 273.420 175.136,273.600 175.651,273.600 176.144 C 273.600 176.637,273.749 177.211,273.930 177.420 C 274.112 177.629,274.493 178.610,274.776 179.600 C 275.059 180.590,275.430 181.760,275.600 182.200 C 275.770 182.640,276.130 183.810,276.401 184.800 C 276.671 185.790,277.039 187.050,277.217 187.600 C 277.395 188.150,277.757 189.590,278.020 190.800 C 278.284 192.010,278.638 193.450,278.807 194.000 C 278.976 194.550,279.322 196.080,279.576 197.400 C 279.831 198.720,280.206 200.610,280.410 201.600 C 284.693 222.356,283.487 253.057,277.589 273.400 C 277.334 274.280,277.032 275.587,276.919 276.304 C 276.805 277.021,276.551 277.706,276.356 277.827 C 276.160 277.948,276.000 278.566,276.000 279.200 C 276.000 279.834,275.820 280.464,275.600 280.600 C 275.380 280.736,275.200 281.276,275.200 281.800 C 275.200 282.324,275.020 282.864,274.800 283.000 C 274.580 283.136,274.400 283.676,274.400 284.200 C 274.400 284.724,274.220 285.264,274.000 285.400 C 273.780 285.536,273.600 285.999,273.600 286.429 C 273.600 286.859,273.441 287.523,273.247 287.905 C 273.052 288.287,272.716 289.050,272.500 289.600 C 269.107 298.230,264.361 308.429,262.321 311.472 C 261.704 312.392,261.200 313.257,261.200 313.394 C 261.200 313.531,260.480 314.704,259.600 316.000 C 258.720 317.296,258.000 318.469,258.000 318.606 C 258.000 318.863,255.832 322.103,254.933 323.191 C 252.553 326.070,248.400 331.612,248.400 331.910 C 248.400 332.114,251.235 333.375,254.700 334.712 C 264.506 338.495,270.634 340.393,276.800 341.555 C 278.010 341.783,279.720 342.107,280.600 342.275 C 282.548 342.647,303.963 342.627,306.200 342.251 C 322.067 339.587,337.933 333.026,347.946 324.989 C 353.728 320.347,360.332 314.068,363.078 310.600 C 363.775 309.720,364.775 308.460,365.300 307.800 C 366.248 306.609,369.664 301.585,370.926 299.526 C 371.522 298.553,372.397 297.026,373.542 294.955 C 374.695 292.871,377.614 286.288,378.400 284.000 C 378.664 283.230,379.022 282.240,379.195 281.800 C 379.367 281.360,379.730 280.190,380.000 279.200 C 380.270 278.210,380.636 277.040,380.813 276.600 C 380.990 276.160,381.258 275.170,381.409 274.400 C 381.559 273.630,381.846 272.280,382.045 271.400 C 383.767 263.820,383.737 264.798,383.891 209.600 C 384.049 152.920,383.829 144.271,381.995 135.000 C 381.468 132.341,381.018 130.012,380.446 127.000 C 380.237 125.900,379.872 124.325,379.633 123.500 C 379.395 122.675,379.020 121.370,378.800 120.600 C 378.580 119.830,378.220 118.570,378.000 117.800 C 377.780 117.030,377.443 115.815,377.251 115.100 C 376.947 113.965,376.361 112.327,375.211 109.400 C 365.337 84.254,341.021 66.367,314.022 64.391 C 308.599 63.994,308.713 63.994,302.200 64.413 M47.385 70.900 L 45.400 73.000 47.500 71.015 C 49.451 69.171,49.783 68.800,49.485 68.800 C 49.422 68.800,48.477 69.745,47.385 70.900 M185.800 73.200 C 188.212 75.620,190.276 77.600,190.386 77.600 C 190.496 77.600,188.612 75.620,186.200 73.200 C 183.788 70.780,181.724 68.800,181.614 68.800 C 181.504 68.800,183.388 70.780,185.800 73.200 M310.200 79.495 C 316.682 80.783,318.069 89.872,312.384 93.811 C 305.492 98.587,296.735 89.777,301.388 82.747 C 302.903 80.457,306.558 78.547,308.400 79.082 C 308.730 79.178,309.540 79.363,310.200 79.495 M342.308 90.544 C 343.129 91.063,344.357 92.008,345.038 92.644 C 345.719 93.280,347.073 94.520,348.046 95.400 C 351.537 98.556,357.760 106.936,358.664 109.700 C 358.790 110.085,359.052 110.400,359.247 110.400 C 359.441 110.400,359.600 110.672,359.600 111.005 C 359.600 111.338,359.759 111.923,359.953 112.305 C 360.148 112.687,360.489 113.450,360.713 114.000 C 360.936 114.550,361.426 115.698,361.802 116.551 C 362.845 118.916,365.445 128.294,366.334 132.897 C 367.102 136.868,367.520 139.564,368.388 146.116 C 368.921 150.147,368.946 197.563,368.416 198.958 C 366.624 203.671,360.077 205.310,356.028 202.059 C 352.896 199.543,353.030 200.702,352.752 173.800 C 352.504 149.839,352.163 143.675,350.769 138.000 C 350.526 137.010,350.178 135.300,349.995 134.200 C 349.812 133.100,349.458 131.480,349.209 130.600 C 348.959 129.720,348.575 128.370,348.355 127.600 C 348.135 126.830,347.814 125.657,347.641 124.994 C 347.468 124.330,347.010 123.070,346.622 122.194 C 346.235 121.317,345.736 120.150,345.513 119.600 C 344.731 117.673,343.159 114.872,341.475 112.402 C 340.799 111.411,338.320 108.678,335.966 106.328 C 331.107 101.478,330.400 100.337,330.400 97.351 C 330.400 91.387,337.355 87.411,342.308 90.544 M16.514 134.200 C 16.517 135.300,16.595 135.703,16.687 135.095 C 16.779 134.486,16.777 133.586,16.682 133.095 C 16.587 132.603,16.511 133.100,16.514 134.200 M16.093 148.800 C 16.093 149.570,16.175 149.885,16.276 149.500 C 16.376 149.115,16.376 148.485,16.276 148.100 C 16.175 147.715,16.093 148.030,16.093 148.800 M16.501 152.600 C 16.505 153.480,16.587 153.793,16.683 153.295 C 16.779 152.798,16.775 152.078,16.675 151.695 C 16.575 151.313,16.496 151.720,16.501 152.600 M249.693 202.800 C 249.693 203.570,249.775 203.885,249.876 203.500 C 249.976 203.115,249.976 202.485,249.876 202.100 C 249.775 201.715,249.693 202.030,249.693 202.800 M240.400 210.794 C 240.730 211.011,241.435 211.191,241.967 211.194 C 243.251 211.202,242.925 210.975,241.200 210.658 C 240.215 210.477,239.978 210.518,240.400 210.794 M266.120 219.200 C 266.120 220.410,266.195 220.905,266.287 220.300 C 266.378 219.695,266.378 218.705,266.287 218.100 C 266.195 217.495,266.120 217.990,266.120 219.200 M266.493 228.800 C 266.493 229.570,266.575 229.885,266.676 229.500 C 266.776 229.115,266.776 228.485,266.676 228.100 C 266.575 227.715,266.493 228.030,266.493 228.800 M266.501 232.600 C 266.505 233.480,266.587 233.793,266.683 233.295 C 266.779 232.798,266.775 232.078,266.675 231.695 C 266.575 231.313,266.496 231.720,266.501 232.600 M266.124 243.400 C 266.126 244.720,266.201 245.212,266.290 244.493 C 266.379 243.774,266.377 242.694,266.286 242.093 C 266.195 241.492,266.122 242.080,266.124 243.400 M305.640 273.640 C 308.544 274.578,309.628 275.296,310.873 277.106 C 313.439 280.836,312.440 285.641,308.538 288.338 C 304.837 290.895,293.600 289.158,293.600 286.029 C 293.600 285.793,293.456 285.600,293.280 285.600 C 292.784 285.600,292.000 283.101,292.000 281.520 C 292.000 275.791,299.282 271.584,305.640 273.640 M102.300 277.489 C 103.015 277.578,104.185 277.578,104.900 277.489 C 105.615 277.401,105.030 277.328,103.600 277.328 C 102.170 277.328,101.585 277.401,102.300 277.489 M158.307 277.490 C 159.026 277.579,160.106 277.577,160.707 277.486 C 161.308 277.395,160.720 277.322,159.400 277.324 C 158.080 277.326,157.588 277.401,158.307 277.490 M217.900 289.889 C 218.615 289.978,219.785 289.978,220.500 289.889 C 221.215 289.801,220.630 289.728,219.200 289.728 C 217.770 289.728,217.185 289.801,217.900 289.889 M346.003 303.000 C 351.749 306.982,350.023 315.824,343.225 317.237 C 333.505 319.257,326.593 313.279,330.119 305.903 C 332.203 301.544,341.461 299.852,346.003 303.000 M195.091 305.489 C 195.801 305.577,197.061 305.579,197.891 305.492 C 198.721 305.405,198.140 305.333,196.600 305.331 C 195.060 305.329,194.381 305.400,195.091 305.489 M294.129 307.396 C 298.656 309.288,300.397 314.806,297.793 319.012 C 294.261 324.716,282.835 324.330,279.691 318.400 C 275.781 311.025,285.354 303.730,294.129 307.396 M135.693 318.800 C 135.693 319.570,135.775 319.885,135.876 319.500 C 135.976 319.115,135.976 318.485,135.876 318.100 C 135.775 317.715,135.693 318.030,135.693 318.800 M233.775 323.300 L 232.600 324.600 233.900 323.425 C 234.615 322.779,235.200 322.194,235.200 322.125 C 235.200 321.816,234.870 322.088,233.775 323.300 M144.700 327.089 C 145.415 327.178,146.585 327.178,147.300 327.089 C 148.015 327.001,147.430 326.928,146.000 326.928 C 144.570 326.928,143.985 327.001,144.700 327.089 M169.700 355.476 C 170.085 355.576,170.715 355.576,171.100 355.476 C 171.485 355.375,171.170 355.293,170.400 355.293 C 169.630 355.293,169.315 355.375,169.700 355.476 M157.705 356.287 C 158.314 356.379,159.214 356.377,159.705 356.282 C 160.197 356.187,159.700 356.111,158.600 356.114 C 157.500 356.117,157.097 356.195,157.705 356.287 " stroke="none" fill="#fb9454" fill-rule="evenodd"></path><path id="path2" d="M105.517 44.216 C 105.384 44.349,103.954 44.617,102.338 44.813 C 100.722 45.008,98.500 45.338,97.400 45.546 C 96.300 45.754,94.680 46.045,93.800 46.194 C 92.920 46.342,91.840 46.604,91.400 46.776 C 89.762 47.417,87.724 48.000,87.125 48.000 C 85.000 48.000,65.789 56.525,65.267 57.700 C 65.193 57.865,64.961 58.000,64.751 58.000 C 62.365 58.000,46.133 71.573,40.116 78.600 C 36.812 82.458,31.939 89.160,30.664 91.600 C 29.802 93.250,29.014 94.588,28.778 94.800 C 28.656 94.910,27.609 96.980,26.451 99.400 C 25.293 101.820,23.998 104.492,23.573 105.338 C 23.148 106.184,22.800 107.131,22.800 107.443 C 22.800 107.755,22.629 108.323,22.419 108.705 C 21.350 110.654,19.087 118.787,17.940 124.800 C 17.209 128.637,16.879 131.519,16.137 140.551 C 15.566 147.512,17.591 162.669,20.313 171.800 C 23.052 180.988,25.477 186.208,33.597 200.400 C 34.416 201.830,36.222 205.160,37.611 207.800 C 39.000 210.440,40.850 213.950,41.723 215.600 C 44.904 221.613,49.600 231.234,49.600 231.739 C 49.600 231.843,50.246 233.340,51.035 235.064 C 51.825 236.789,52.705 238.740,52.992 239.400 C 53.279 240.060,53.951 241.590,54.486 242.800 C 55.021 244.010,55.688 245.630,55.970 246.400 C 56.251 247.170,56.624 248.160,56.800 248.600 C 56.976 249.040,57.336 250.030,57.600 250.800 C 58.412 253.164,59.396 255.615,60.047 256.895 C 60.241 257.277,60.400 257.864,60.400 258.200 C 60.400 258.536,60.559 259.123,60.753 259.505 C 61.350 260.678,61.924 262.126,62.455 263.800 C 62.735 264.680,63.107 265.571,63.282 265.780 C 63.457 265.989,63.600 266.486,63.600 266.885 C 63.600 267.284,63.762 267.923,63.961 268.305 C 64.160 268.687,64.546 269.810,64.819 270.800 C 65.092 271.790,65.646 273.680,66.050 275.000 C 66.455 276.320,67.255 279.020,67.829 281.000 C 68.403 282.980,69.396 286.318,70.036 288.419 C 70.676 290.519,71.200 292.533,71.200 292.895 C 71.200 293.257,71.380 293.664,71.600 293.800 C 71.820 293.936,72.000 294.399,72.000 294.829 C 72.000 295.259,72.159 295.923,72.353 296.305 C 72.548 296.687,72.908 297.495,73.153 298.100 C 73.399 298.705,73.801 299.695,74.047 300.300 C 74.292 300.905,74.652 301.713,74.847 302.095 C 75.041 302.477,75.200 303.062,75.200 303.395 C 75.200 303.728,75.380 304.000,75.600 304.000 C 75.820 304.000,76.000 304.265,76.000 304.588 C 76.000 304.911,76.388 305.856,76.862 306.688 C 77.336 307.520,78.206 309.106,78.795 310.214 C 79.933 312.352,85.174 320.297,86.069 321.240 C 86.361 321.548,87.129 322.520,87.774 323.400 C 91.598 328.608,108.128 342.800,110.372 342.800 C 110.607 342.800,110.801 342.935,110.803 343.100 C 110.805 343.265,111.210 343.601,111.703 343.846 C 112.196 344.091,113.950 344.997,115.600 345.860 C 121.051 348.711,128.817 351.715,133.600 352.823 C 134.370 353.001,135.720 353.347,136.600 353.592 C 138.372 354.085,141.273 354.592,146.400 355.303 C 150.794 355.913,166.808 355.899,171.200 355.282 C 177.949 354.333,179.472 354.044,184.000 352.851 C 192.212 350.687,206.941 344.866,208.400 343.208 C 208.510 343.083,209.455 342.535,210.500 341.991 C 211.545 341.447,212.400 340.866,212.400 340.701 C 212.400 340.535,212.590 340.400,212.822 340.400 C 214.230 340.400,226.310 330.974,230.800 326.372 C 235.495 321.560,240.809 315.263,242.290 312.755 C 242.665 312.120,243.114 311.600,243.286 311.600 C 243.459 311.600,243.600 311.364,243.600 311.075 C 243.600 310.787,243.924 310.202,244.320 309.775 C 244.716 309.349,245.162 308.730,245.311 308.400 C 245.460 308.070,246.133 306.900,246.807 305.800 C 247.942 303.947,249.307 301.202,253.613 292.114 C 255.627 287.865,255.809 287.436,256.455 285.400 C 256.735 284.520,257.107 283.629,257.282 283.420 C 257.457 283.211,257.600 282.714,257.600 282.315 C 257.600 281.916,257.780 281.232,258.000 280.795 C 258.220 280.358,258.580 279.642,258.800 279.205 C 259.020 278.768,259.200 278.136,259.200 277.800 C 259.200 277.464,259.358 276.877,259.551 276.495 C 260.135 275.339,260.800 272.996,260.800 272.095 C 260.800 271.629,260.980 271.136,261.200 271.000 C 261.420 270.864,261.600 270.144,261.600 269.400 C 261.600 268.656,261.780 267.936,262.000 267.800 C 262.220 267.664,262.400 267.081,262.400 266.505 C 262.400 265.928,262.568 264.904,262.773 264.228 C 263.574 261.588,263.965 259.660,264.398 256.200 C 264.646 254.220,265.018 251.700,265.223 250.600 C 266.933 241.452,266.807 220.593,264.978 209.997 C 264.628 207.967,264.190 205.112,264.005 203.653 C 263.821 202.194,263.459 200.280,263.202 199.400 C 262.945 198.520,262.647 197.260,262.540 196.600 C 262.433 195.940,262.191 195.040,262.003 194.600 C 261.642 193.758,261.287 192.269,260.927 190.096 C 260.809 189.379,260.551 188.694,260.356 188.573 C 260.160 188.452,260.000 187.834,260.000 187.200 C 260.000 186.566,259.820 185.936,259.600 185.800 C 259.380 185.664,259.200 185.124,259.200 184.600 C 259.200 184.076,259.020 183.536,258.800 183.400 C 258.580 183.264,258.400 182.801,258.400 182.371 C 258.400 181.941,258.229 181.277,258.019 180.895 C 257.809 180.513,257.257 179.030,256.793 177.600 C 256.328 176.170,255.803 174.640,255.627 174.200 C 255.065 172.794,254.498 171.438,253.873 170.000 C 253.538 169.230,252.726 167.250,252.068 165.600 C 250.622 161.972,248.104 156.467,246.031 152.400 C 242.272 145.026,240.997 142.586,240.806 142.400 C 240.414 142.019,239.150 139.797,238.929 139.100 C 238.807 138.715,238.548 138.400,238.353 138.400 C 238.159 138.400,238.000 138.233,238.000 138.029 C 238.000 137.397,230.855 126.056,229.711 124.871 C 229.430 124.581,229.200 124.189,229.200 124.000 C 229.200 123.811,228.969 123.419,228.687 123.129 C 228.405 122.838,227.738 121.970,227.206 121.200 C 226.674 120.430,226.131 119.710,226.000 119.600 C 225.869 119.490,225.329 118.770,224.800 118.000 C 224.271 117.230,223.739 116.510,223.618 116.400 C 223.497 116.290,222.588 115.124,221.599 113.809 C 219.781 111.394,219.158 110.616,217.580 108.800 C 217.102 108.250,216.056 106.990,215.255 106.000 C 214.455 105.010,213.710 104.110,213.600 104.000 C 213.245 103.645,207.010 96.567,204.928 94.156 C 204.528 93.692,202.922 91.892,201.360 90.156 C 199.798 88.420,197.908 86.287,197.160 85.416 C 196.412 84.544,195.350 83.308,194.800 82.669 C 191.908 79.307,181.450 68.816,179.157 66.977 C 177.703 65.811,176.263 64.607,175.957 64.302 C 175.103 63.451,165.675 57.200,165.245 57.200 C 165.037 57.200,164.807 57.065,164.733 56.900 C 164.521 56.422,155.726 52.213,152.000 50.807 C 150.130 50.101,148.240 49.377,147.800 49.198 C 146.312 48.593,145.405 48.301,144.000 47.976 C 142.587 47.650,140.571 47.101,138.000 46.341 C 137.230 46.114,135.430 45.752,134.000 45.537 C 132.570 45.322,130.320 44.956,129.000 44.724 C 126.394 44.265,105.911 43.822,105.517 44.216 M198.818 109.706 C 201.138 110.515,202.136 111.360,205.395 115.274 C 207.101 117.323,208.883 119.450,209.356 120.000 C 209.828 120.550,210.653 121.630,211.188 122.400 C 211.723 123.170,212.269 123.890,212.400 124.000 C 212.531 124.110,213.075 124.830,213.608 125.600 C 214.142 126.370,214.901 127.352,215.295 127.782 C 216.371 128.955,224.400 141.142,224.400 141.601 C 224.400 141.821,224.559 142.000,224.753 142.000 C 224.948 142.000,225.207 142.315,225.329 142.700 C 225.546 143.385,226.804 145.604,227.200 146.000 C 227.310 146.110,227.642 146.630,227.938 147.155 C 228.233 147.680,228.850 148.760,229.309 149.555 C 230.705 151.974,235.708 161.967,237.542 166.000 C 239.531 170.370,240.103 171.711,241.254 174.700 C 241.444 175.195,241.756 176.005,241.946 176.500 C 242.524 178.001,243.273 179.760,243.647 180.495 C 243.841 180.877,244.000 181.541,244.000 181.971 C 244.000 182.401,244.180 182.864,244.400 183.000 C 244.620 183.136,244.800 183.599,244.800 184.029 C 244.800 184.459,244.974 185.123,245.187 185.505 C 245.610 186.263,246.676 189.382,247.270 191.600 C 247.476 192.370,247.799 193.540,247.988 194.200 C 248.176 194.860,248.638 196.480,249.013 197.800 C 250.658 203.589,249.366 208.155,245.600 209.865 C 242.033 211.485,241.553 211.480,237.779 209.785 C 235.293 208.670,234.113 206.438,232.394 199.600 C 231.702 196.850,230.983 194.240,230.795 193.800 C 230.606 193.360,230.069 191.830,229.600 190.400 C 229.131 188.970,228.597 187.440,228.414 187.000 C 228.231 186.560,227.864 185.570,227.600 184.800 C 226.820 182.528,226.559 181.892,225.657 180.062 C 225.186 179.106,224.800 177.981,224.800 177.562 C 224.800 177.143,224.620 176.800,224.400 176.800 C 224.180 176.800,224.000 176.528,224.000 176.195 C 224.000 175.862,223.831 175.277,223.625 174.895 C 223.418 174.513,221.534 170.690,219.438 166.400 C 217.342 162.110,214.721 157.087,213.614 155.239 C 212.506 153.390,211.600 151.725,211.600 151.539 C 211.600 151.352,211.420 151.200,211.200 151.200 C 210.980 151.200,210.800 151.015,210.800 150.789 C 210.800 149.814,197.682 131.225,195.344 128.887 C 195.038 128.581,194.298 127.671,193.698 126.865 C 193.099 126.059,192.326 125.130,191.979 124.800 C 190.695 123.576,188.915 120.548,188.503 118.888 C 187.112 113.274,193.286 107.778,198.818 109.706 M247.400 225.200 C 247.536 225.420,247.914 225.600,248.241 225.600 C 250.469 225.600,253.618 231.209,253.033 234.134 C 252.348 237.559,249.458 240.800,247.089 240.800 C 246.578 240.800,245.962 240.998,245.720 241.240 C 245.245 241.715,243.405 241.261,240.859 240.042 C 236.342 237.880,235.587 230.898,239.441 226.918 C 241.143 225.159,246.641 223.972,247.400 225.200 M223.200 273.706 C 225.017 274.347,227.600 275.958,227.600 276.449 C 227.600 276.661,227.960 277.220,228.400 277.692 C 229.722 279.111,229.337 286.000,227.936 286.000 C 227.751 286.000,227.600 286.255,227.600 286.567 C 227.600 289.795,217.040 290.940,212.494 288.206 C 208.081 285.552,208.053 276.053,212.455 274.902 C 212.865 274.794,213.200 274.548,213.200 274.353 C 213.200 274.159,213.605 273.997,214.100 273.994 C 214.595 273.991,215.270 273.813,215.600 273.600 C 216.453 273.048,221.537 273.119,223.200 273.706 M107.730 277.819 C 109.334 278.108,112.251 280.530,113.195 282.357 C 114.433 284.753,112.971 291.600,111.222 291.600 C 111.073 291.600,110.595 291.932,110.159 292.337 C 108.369 294.005,97.600 294.363,97.600 292.755 C 97.600 292.560,97.332 292.400,97.004 292.400 C 96.676 292.400,95.780 291.545,95.014 290.500 C 91.743 286.042,94.476 278.026,99.279 277.994 C 99.785 277.991,100.470 277.806,100.800 277.583 C 101.398 277.179,104.822 277.296,107.730 277.819 M163.200 277.806 C 168.103 278.711,170.949 284.390,168.834 289.049 C 165.722 295.901,152.836 295.767,149.793 288.851 C 147.926 284.605,151.176 278.085,155.200 278.007 C 155.750 277.996,156.470 277.805,156.800 277.582 C 157.387 277.186,160.410 277.292,163.200 277.806 M200.600 305.814 C 208.276 307.780,208.576 319.483,201.000 321.388 C 192.780 323.455,186.362 320.115,186.325 313.749 C 186.288 307.417,192.777 303.810,200.600 305.814 M151.691 311.808 C 157.158 314.554,157.980 321.593,153.246 325.118 C 152.451 325.711,151.676 326.369,151.525 326.581 C 151.374 326.792,149.034 326.972,146.325 326.979 C 141.043 326.994,138.127 325.890,137.400 323.599 C 137.260 323.160,137.012 322.800,136.849 322.800 C 136.059 322.800,135.518 318.780,136.060 316.939 C 137.678 311.441,145.711 308.804,151.691 311.808 " stroke="none" fill="#f3cb6b" fill-rule="evenodd"></path><path id="path3" d="M108.800 43.419 C 100.428 44.120,95.291 44.993,89.200 46.751 C 88.430 46.973,87.170 47.324,86.400 47.531 C 84.945 47.923,83.961 48.249,82.600 48.791 C 82.160 48.967,80.090 49.783,78.000 50.606 C 71.321 53.233,59.588 59.920,54.947 63.742 C 54.536 64.081,53.120 65.213,51.800 66.259 C 44.760 71.833,31.710 87.014,29.689 91.980 C 29.559 92.299,28.805 93.649,28.013 94.980 C 24.347 101.142,20.751 110.185,18.621 118.600 C 16.234 128.028,15.475 135.050,15.743 145.201 C 16.287 165.825,20.051 178.112,32.405 199.600 C 33.227 201.030,34.755 203.820,35.801 205.800 C 36.848 207.780,38.562 211.020,39.610 213.000 C 40.659 214.980,42.135 217.770,42.890 219.200 C 43.645 220.630,44.459 222.160,44.699 222.600 C 44.939 223.040,45.532 224.300,46.017 225.400 C 46.503 226.500,47.308 228.300,47.805 229.400 C 48.303 230.500,49.110 232.300,49.598 233.400 C 50.086 234.500,51.024 236.570,51.681 238.000 C 53.408 241.756,55.311 246.419,56.986 251.000 C 59.028 256.583,60.018 259.252,60.439 260.300 C 60.638 260.795,60.962 261.605,61.160 262.100 C 61.357 262.595,61.736 263.630,62.000 264.400 C 62.264 265.170,62.622 266.160,62.795 266.600 C 62.967 267.040,63.330 268.210,63.601 269.200 C 63.871 270.190,64.240 271.450,64.419 272.000 C 64.599 272.550,65.143 274.350,65.630 276.000 C 66.116 277.650,66.861 280.170,67.284 281.600 C 67.708 283.030,68.225 284.560,68.435 285.000 C 69.275 286.766,68.495 283.651,66.230 276.200 C 65.427 273.560,64.393 270.140,63.932 268.600 C 63.209 266.186,61.937 262.609,60.804 259.800 C 60.626 259.360,60.264 258.370,60.000 257.600 C 59.736 256.830,59.375 255.840,59.199 255.400 C 59.022 254.960,58.483 253.520,58.000 252.200 C 57.517 250.880,56.978 249.440,56.801 249.000 C 56.625 248.560,56.251 247.570,55.970 246.800 C 55.436 245.339,54.444 243.054,51.192 235.800 C 50.797 234.920,49.375 231.715,48.032 228.677 C 46.689 225.639,44.847 221.769,43.938 220.077 C 43.029 218.385,41.621 215.740,40.811 214.200 C 36.007 205.077,34.080 201.509,32.095 198.059 C 29.603 193.731,24.381 183.638,23.682 181.800 C 23.431 181.140,22.845 179.610,22.381 178.400 C 19.537 170.989,17.564 162.592,16.561 153.635 C 15.421 143.448,16.408 128.647,18.817 119.800 C 19.057 118.920,19.398 117.570,19.574 116.800 C 20.009 114.907,21.924 109.167,22.409 108.305 C 22.624 107.923,22.800 107.433,22.800 107.215 C 22.800 106.243,27.086 97.448,30.020 92.400 C 32.096 88.828,36.173 83.058,38.782 80.000 C 39.814 78.790,41.005 77.369,41.429 76.842 C 42.752 75.198,48.861 69.399,52.000 66.808 C 53.650 65.446,55.362 64.032,55.805 63.666 C 57.058 62.630,62.433 58.989,64.100 58.047 C 64.925 57.581,66.275 56.815,67.100 56.345 C 77.422 50.458,89.564 46.445,103.400 44.348 C 107.373 43.745,124.573 43.729,127.600 44.324 C 128.810 44.563,131.150 44.960,132.800 45.207 C 142.577 46.674,162.864 54.254,166.702 57.874 C 166.979 58.134,167.564 58.462,168.002 58.601 C 168.441 58.740,168.800 59.022,168.800 59.227 C 168.800 59.432,168.990 59.600,169.222 59.600 C 169.653 59.600,173.855 62.350,175.364 63.620 C 175.824 64.007,177.910 65.759,180.000 67.513 C 184.424 71.226,189.889 76.812,195.775 83.637 C 197.283 85.385,202.536 91.338,202.804 91.600 C 202.915 91.710,204.265 93.239,205.804 94.997 C 207.342 96.755,209.348 99.005,210.262 99.997 C 213.118 103.096,220.525 112.038,223.351 115.800 C 224.839 117.780,226.305 119.707,226.610 120.083 C 231.981 126.710,243.910 146.972,248.779 157.739 C 249.261 158.805,249.757 159.577,249.880 159.453 C 250.107 159.227,244.782 148.277,242.269 143.800 C 239.569 138.991,239.093 138.181,238.353 137.138 C 237.939 136.554,237.600 135.987,237.600 135.878 C 237.600 135.125,226.882 119.180,225.582 118.000 C 225.461 117.890,224.929 117.170,224.400 116.400 C 223.871 115.630,223.339 114.910,223.217 114.800 C 223.095 114.690,222.458 113.880,221.802 113.000 C 220.500 111.255,214.674 104.243,212.659 101.997 C 211.966 101.225,210.231 99.245,208.803 97.597 C 207.375 95.948,205.931 94.330,205.595 94.000 C 205.259 93.670,203.024 91.150,200.629 88.400 C 189.891 76.071,185.561 71.505,180.955 67.650 C 176.437 63.870,174.478 62.309,173.651 61.827 C 173.298 61.622,172.827 61.306,172.605 61.126 C 169.213 58.376,158.590 52.635,152.800 50.423 C 150.930 49.708,149.040 48.977,148.600 48.798 C 147.299 48.269,146.286 47.931,144.800 47.531 C 144.030 47.324,142.770 46.973,142.000 46.751 C 135.833 44.971,130.870 44.142,123.200 43.610 C 120.230 43.403,117.170 43.160,116.400 43.068 C 115.630 42.976,112.210 43.134,108.800 43.419 M305.400 63.604 C 304.300 63.783,302.265 63.946,300.877 63.965 C 299.490 63.984,297.600 64.165,296.677 64.367 C 295.755 64.569,293.920 64.955,292.600 65.225 C 287.597 66.249,281.642 68.258,276.645 70.609 C 273.584 72.049,264.688 77.499,264.000 78.356 C 263.890 78.492,263.080 79.125,262.200 79.760 C 259.666 81.591,252.092 89.510,249.730 92.800 C 246.344 97.514,243.600 101.542,243.600 101.797 C 243.600 101.926,242.520 103.637,241.200 105.600 C 239.880 107.563,238.800 109.382,238.800 109.642 C 238.800 110.178,244.382 118.529,244.877 118.733 C 245.055 118.807,245.200 119.040,245.200 119.251 C 245.200 119.463,246.086 120.949,247.169 122.554 C 252.076 129.826,260.951 146.121,264.513 154.400 C 264.844 155.170,265.478 156.610,265.921 157.600 C 268.356 163.040,273.562 177.002,274.833 181.500 C 275.035 182.215,275.370 183.385,275.577 184.100 C 276.315 186.642,276.745 188.233,277.384 190.800 C 277.741 192.230,278.197 194.030,278.399 194.800 C 278.960 196.946,280.174 203.382,280.774 207.400 C 282.996 222.268,282.832 243.915,280.395 257.600 C 280.140 259.030,279.788 261.010,279.613 262.000 C 279.284 263.857,278.576 267.147,277.978 269.600 C 277.008 273.579,276.822 274.310,276.449 275.600 C 276.227 276.370,275.874 277.630,275.666 278.400 C 274.591 282.369,270.396 293.794,268.342 298.345 C 266.042 303.441,261.790 311.810,261.200 312.400 C 261.090 312.510,260.683 313.140,260.296 313.800 C 256.627 320.057,253.443 324.551,248.154 330.938 C 247.818 331.343,247.624 331.883,247.722 332.138 C 247.887 332.562,255.957 335.892,261.200 337.698 C 262.410 338.115,263.760 338.606,264.200 338.788 C 265.380 339.277,267.167 339.846,269.200 340.381 C 270.190 340.641,271.540 341.005,272.200 341.189 C 272.860 341.373,274.660 341.737,276.200 341.998 C 277.740 342.258,279.810 342.675,280.800 342.924 C 283.342 343.563,302.658 343.543,305.900 342.898 C 307.275 342.624,309.525 342.200,310.900 341.956 C 312.275 341.711,313.940 341.363,314.600 341.183 C 315.260 341.002,316.610 340.638,317.600 340.374 C 320.386 339.630,324.126 338.403,324.895 337.981 C 325.277 337.771,325.774 337.600,325.999 337.600 C 327.209 337.600,337.759 332.333,342.206 329.508 C 355.194 321.259,364.851 311.101,372.922 297.200 C 376.387 291.232,381.851 277.318,381.046 276.513 C 380.808 276.274,380.790 276.320,380.002 279.200 C 379.731 280.190,379.367 281.360,379.195 281.800 C 379.022 282.240,378.664 283.230,378.400 284.000 C 377.614 286.288,374.695 292.871,373.542 294.955 C 372.397 297.026,371.522 298.553,370.926 299.526 C 369.664 301.585,366.248 306.609,365.300 307.800 C 364.775 308.460,363.775 309.720,363.078 310.600 C 360.332 314.068,353.728 320.347,347.946 324.989 C 337.933 333.026,322.067 339.587,306.200 342.251 C 303.963 342.627,282.548 342.647,280.600 342.275 C 279.720 342.107,278.010 341.783,276.800 341.555 C 270.634 340.393,264.506 338.495,254.700 334.712 C 251.235 333.375,248.400 332.114,248.400 331.910 C 248.400 331.612,252.553 326.070,254.933 323.191 C 255.832 322.103,258.000 318.863,258.000 318.606 C 258.000 318.469,258.720 317.296,259.600 316.000 C 260.480 314.704,261.200 313.531,261.200 313.394 C 261.200 313.257,261.704 312.392,262.321 311.472 C 264.127 308.778,269.290 297.839,271.654 291.700 C 272.327 289.951,272.897 288.592,273.247 287.905 C 273.441 287.523,273.600 286.859,273.600 286.429 C 273.600 285.999,273.780 285.536,274.000 285.400 C 274.220 285.264,274.400 284.724,274.400 284.200 C 274.400 283.676,274.580 283.136,274.800 283.000 C 275.020 282.864,275.200 282.324,275.200 281.800 C 275.200 281.276,275.380 280.736,275.600 280.600 C 275.820 280.464,276.000 279.834,276.000 279.200 C 276.000 278.566,276.160 277.948,276.356 277.827 C 276.551 277.706,276.805 277.021,276.919 276.304 C 277.032 275.587,277.334 274.280,277.589 273.400 C 283.487 253.057,284.693 222.356,280.410 201.600 C 280.206 200.610,279.831 198.720,279.576 197.400 C 279.322 196.080,278.976 194.550,278.807 194.000 C 278.638 193.450,278.284 192.010,278.020 190.800 C 277.757 189.590,277.395 188.150,277.217 187.600 C 277.039 187.050,276.671 185.790,276.401 184.800 C 276.130 183.810,275.770 182.640,275.600 182.200 C 275.430 181.760,275.059 180.590,274.776 179.600 C 274.493 178.610,274.112 177.629,273.930 177.420 C 273.749 177.211,273.600 176.637,273.600 176.144 C 273.600 175.651,273.420 175.136,273.200 175.000 C 272.980 174.864,272.800 174.401,272.800 173.971 C 272.800 173.541,272.634 172.877,272.432 172.495 C 272.230 172.113,271.672 170.720,271.193 169.400 C 270.179 166.606,269.645 165.271,269.153 164.305 C 268.959 163.923,268.800 163.434,268.800 163.217 C 268.800 163.001,268.378 161.873,267.862 160.712 C 267.346 159.550,266.311 157.163,265.562 155.406 C 263.668 150.964,257.236 138.255,254.102 132.760 C 250.824 127.012,242.560 114.315,241.935 114.067 C 241.751 113.993,241.600 113.723,241.599 113.467 C 241.599 113.210,241.059 112.370,240.400 111.600 C 238.902 109.850,238.887 110.017,240.800 107.200 C 241.680 105.904,242.400 104.736,242.400 104.605 C 242.400 104.474,242.581 104.149,242.801 103.883 C 243.022 103.617,244.308 101.690,245.660 99.600 C 252.035 89.739,261.852 79.418,267.700 76.427 C 268.305 76.118,268.800 75.715,268.800 75.532 C 268.800 75.350,268.993 75.200,269.228 75.200 C 269.463 75.200,270.408 74.694,271.328 74.075 C 272.875 73.034,273.917 72.505,279.700 69.828 C 315.005 53.484,360.686 72.410,375.211 109.400 C 376.361 112.327,376.947 113.965,377.251 115.100 C 377.691 116.741,378.341 119.048,378.800 120.600 C 380.020 124.725,380.064 124.911,381.160 130.700 C 381.358 131.745,381.733 133.680,381.995 135.000 C 383.829 144.271,384.049 152.920,383.891 209.600 C 383.737 264.998,383.774 263.768,382.001 271.600 C 381.310 274.655,381.112 276.351,381.568 275.323 C 381.992 274.368,383.278 267.920,383.967 263.293 C 384.527 259.530,384.574 149.968,384.016 146.077 C 383.806 144.605,383.438 141.780,383.199 139.800 C 382.167 131.229,378.832 117.100,376.400 111.000 C 371.183 97.910,363.994 87.890,353.993 79.770 C 342.613 70.532,328.208 64.753,314.200 63.808 C 312.220 63.674,309.880 63.500,309.000 63.421 C 308.120 63.342,306.500 63.425,305.400 63.604 M306.176 79.354 C 297.043 81.864,298.595 94.855,308.038 94.941 C 317.199 95.025,319.124 81.269,310.200 79.495 C 309.540 79.363,308.730 79.178,308.400 79.082 C 308.070 78.986,307.069 79.108,306.176 79.354 M312.400 81.159 C 314.659 82.962,315.660 85.025,315.483 87.514 C 314.799 97.092,300.629 96.554,300.715 86.953 C 300.768 81.006,307.824 77.507,312.400 81.159 M334.985 90.139 C 328.311 93.911,328.619 98.994,335.966 106.328 C 338.320 108.678,340.799 111.411,341.475 112.402 C 343.157 114.869,344.728 117.668,345.513 119.600 C 345.737 120.150,346.298 121.453,346.760 122.496 C 347.222 123.538,347.600 124.655,347.600 124.977 C 347.600 125.299,347.761 125.976,347.958 126.481 C 348.155 126.987,348.535 128.210,348.801 129.200 C 349.401 131.433,349.937 132.760,349.973 132.104 C 350.021 131.217,347.713 123.473,346.542 120.594 C 344.335 115.170,341.707 111.372,336.687 106.351 C 330.827 100.490,329.828 98.300,331.352 94.653 C 333.461 89.605,340.051 88.519,344.200 92.536 C 344.692 93.011,346.225 94.480,347.608 95.800 C 352.976 100.925,357.729 107.925,360.440 114.700 C 361.442 117.204,361.627 117.668,361.954 118.500 C 362.149 118.995,362.530 120.210,362.801 121.200 C 363.071 122.190,363.431 123.450,363.600 124.000 C 364.383 126.549,365.136 129.747,366.001 134.200 C 366.258 135.520,366.547 136.960,366.643 137.400 C 367.090 139.439,367.714 145.208,368.179 151.600 L 368.688 158.600 368.744 153.916 C 368.796 149.541,368.637 147.686,367.551 140.000 C 366.477 132.402,363.579 120.582,361.802 116.551 C 361.426 115.698,360.936 114.550,360.713 114.000 C 360.489 113.450,360.148 112.687,359.953 112.305 C 359.759 111.923,359.600 111.338,359.600 111.005 C 359.600 110.672,359.441 110.400,359.247 110.400 C 359.052 110.400,358.790 110.085,358.664 109.700 C 357.760 106.936,351.537 98.556,348.046 95.400 C 347.073 94.520,345.719 93.280,345.038 92.644 C 341.919 89.731,337.608 88.657,334.985 90.139 M194.889 109.650 C 187.359 111.823,186.483 118.987,192.928 125.690 C 197.150 130.082,212.400 151.531,212.400 153.079 C 212.400 153.188,212.776 153.805,213.236 154.450 C 215.525 157.666,224.800 176.338,224.800 177.732 C 224.800 178.011,224.952 178.411,225.139 178.620 C 225.325 178.829,226.062 180.530,226.777 182.400 C 227.491 184.270,228.232 186.160,228.423 186.600 C 228.613 187.040,229.427 189.380,230.230 191.800 C 231.500 195.627,232.153 197.899,233.564 203.406 C 234.858 208.455,239.552 211.870,243.419 210.576 C 247.610 209.173,249.600 206.658,249.600 202.762 C 249.600 200.169,246.310 187.874,244.419 183.400 C 244.233 182.960,243.864 181.970,243.600 181.200 C 242.920 179.220,242.232 177.442,241.200 175.000 C 240.921 174.340,240.537 173.395,240.346 172.900 C 238.793 168.866,237.080 165.162,233.177 157.401 C 231.074 153.221,228.599 148.567,227.677 147.059 C 226.754 145.552,226.000 144.157,226.000 143.959 C 226.000 143.762,225.841 143.600,225.647 143.600 C 225.452 143.600,225.193 143.285,225.071 142.900 C 224.854 142.215,223.596 139.996,223.200 139.600 C 223.090 139.490,222.820 139.097,222.600 138.726 C 220.110 134.534,210.945 121.958,207.557 118.085 C 207.030 117.484,205.791 116.004,204.802 114.796 C 202.018 111.396,201.048 110.623,198.418 109.706 C 196.794 109.140,196.664 109.138,194.889 109.650 M200.737 111.411 C 201.542 111.946,203.550 114.039,205.200 116.061 C 206.850 118.083,208.560 120.119,209.000 120.586 C 209.440 121.052,210.242 122.056,210.782 122.817 C 211.322 123.578,211.910 124.380,212.089 124.600 C 214.148 127.136,223.200 140.172,223.200 140.600 C 223.200 140.741,223.740 141.641,224.400 142.600 C 225.060 143.559,225.600 144.464,225.600 144.610 C 225.600 144.757,225.939 145.354,226.353 145.938 C 228.859 149.471,239.600 171.026,239.600 172.522 C 239.600 172.807,239.752 173.211,239.938 173.420 C 240.123 173.629,240.681 174.880,241.177 176.200 C 241.672 177.520,242.265 179.050,242.493 179.600 C 243.098 181.060,243.431 182.005,243.971 183.800 C 244.236 184.680,244.612 185.760,244.806 186.200 C 245.364 187.462,246.472 190.865,246.825 192.400 C 247.002 193.170,247.323 194.430,247.539 195.200 C 248.928 200.162,249.200 201.402,249.200 202.771 C 249.200 208.851,241.807 212.451,237.279 208.575 C 235.234 206.824,234.759 205.829,233.192 200.000 C 231.189 192.556,226.548 179.343,225.541 178.220 C 225.353 178.011,225.200 177.602,225.200 177.312 C 225.200 176.000,217.216 160.025,213.256 153.412 C 211.795 150.974,210.345 148.488,210.032 147.889 C 209.720 147.290,209.337 146.800,209.181 146.800 C 209.025 146.800,208.673 146.260,208.400 145.600 C 208.127 144.940,207.774 144.400,207.616 144.400 C 207.458 144.400,207.120 143.943,206.866 143.385 C 206.612 142.827,206.222 142.152,205.999 141.885 C 205.777 141.618,203.680 138.790,201.340 135.600 C 199.000 132.410,196.973 129.710,196.837 129.600 C 196.701 129.490,195.781 128.412,194.795 127.204 C 193.808 125.996,192.550 124.499,192.000 123.876 C 185.295 116.289,192.537 105.955,200.737 111.411 M350.014 133.833 C 350.022 134.475,350.296 136.080,350.623 137.400 C 352.170 143.641,352.498 149.243,352.752 173.800 C 353.029 200.597,352.908 199.512,355.895 201.974 C 360.553 205.813,368.115 203.154,368.633 197.493 L 368.788 195.800 368.294 197.503 C 366.079 205.136,356.010 205.154,353.729 197.529 C 353.333 196.205,353.211 190.527,353.206 173.307 C 353.203 160.937,353.026 149.597,352.813 148.107 C 351.022 135.592,349.970 130.227,350.014 133.833 M250.142 160.500 C 251.497 163.479,255.913 174.720,257.017 178.000 C 257.795 180.310,258.604 182.513,258.815 182.895 C 259.027 183.277,259.200 183.941,259.200 184.371 C 259.200 184.801,259.359 185.251,259.554 185.371 C 259.749 185.492,260.007 186.087,260.129 186.695 C 260.415 188.119,261.026 190.575,261.600 192.600 C 263.200 198.249,263.701 200.629,264.800 207.800 C 265.036 209.340,265.401 211.680,265.610 213.000 C 266.768 220.281,266.783 241.649,265.636 249.000 C 265.431 250.320,265.070 252.750,264.836 254.400 C 264.193 258.925,263.710 261.628,263.225 263.400 C 262.985 264.280,262.602 265.810,262.375 266.800 C 261.223 271.812,260.098 275.970,259.615 277.000 C 259.409 277.440,258.972 278.610,258.644 279.600 C 256.088 287.322,253.023 294.476,249.047 302.000 C 248.175 303.650,247.268 305.404,247.031 305.897 C 246.794 306.390,246.465 306.795,246.300 306.797 C 246.135 306.799,246.000 306.988,246.000 307.218 C 246.000 307.448,245.068 309.023,243.929 310.718 C 235.073 323.894,221.865 336.042,208.600 343.212 C 203.841 345.784,202.688 346.339,197.400 348.599 C 193.655 350.201,188.274 351.980,183.850 353.080 C 182.030 353.533,181.339 353.839,181.938 353.927 C 182.454 354.003,183.354 353.892,183.938 353.679 C 184.522 353.467,185.810 353.068,186.800 352.793 C 193.701 350.875,202.660 347.205,208.100 344.066 C 208.925 343.590,210.274 342.818,211.098 342.352 C 211.922 341.885,213.349 340.985,214.270 340.352 C 215.191 339.718,216.041 339.200,216.160 339.200 C 216.531 339.200,222.856 334.347,226.000 331.650 C 231.421 327.000,238.430 319.431,241.602 314.800 C 242.130 314.030,242.660 313.310,242.781 313.200 C 243.553 312.496,250.000 302.025,250.000 301.475 C 250.000 301.353,251.271 298.587,252.825 295.327 C 255.945 288.780,256.109 288.413,256.800 286.400 C 257.064 285.630,257.431 284.640,257.614 284.200 C 257.797 283.760,258.331 282.230,258.800 280.800 C 259.269 279.370,259.809 277.840,260.000 277.400 C 262.533 271.565,266.129 252.396,266.865 240.800 C 267.302 233.922,267.054 220.103,266.404 215.100 C 265.012 204.390,263.328 196.498,259.769 184.000 C 259.613 183.450,259.363 182.820,259.214 182.600 C 259.066 182.380,258.711 181.390,258.426 180.400 C 258.142 179.410,257.767 178.240,257.595 177.800 C 257.422 177.360,257.064 176.370,256.800 175.600 C 256.536 174.830,256.133 173.750,255.906 173.200 C 255.377 171.918,254.776 170.416,254.386 169.400 C 254.218 168.960,253.702 167.747,253.240 166.704 C 252.778 165.662,252.400 164.722,252.400 164.616 C 252.400 164.180,250.359 160.000,250.145 160.000 C 250.018 160.000,250.017 160.225,250.142 160.500 M242.404 225.326 C 237.555 226.871,235.488 233.441,238.475 237.821 C 241.383 242.086,248.534 242.042,251.420 237.741 C 255.750 231.290,249.726 222.995,242.404 225.326 M246.892 225.700 C 255.159 228.161,253.562 240.400,244.974 240.400 C 236.152 240.400,234.605 228.924,243.000 225.749 C 244.638 225.130,244.963 225.126,246.892 225.700 M215.437 273.710 C 208.729 275.241,206.942 283.311,212.291 287.911 C 216.127 291.210,225.702 289.699,228.223 285.396 C 232.290 278.458,224.765 271.580,215.437 273.710 M298.372 273.742 C 294.508 274.981,292.000 278.043,292.000 281.520 C 292.000 283.101,292.784 285.600,293.280 285.600 C 293.456 285.600,293.600 285.793,293.600 286.029 C 293.600 289.158,304.837 290.895,308.538 288.338 C 312.440 285.641,313.439 280.836,310.873 277.106 C 308.582 273.776,302.972 272.267,298.372 273.742 M225.564 275.526 C 232.944 281.499,227.290 290.218,216.824 289.003 C 209.417 288.143,206.831 279.398,212.813 275.439 C 215.671 273.547,223.182 273.598,225.564 275.526 M308.488 275.244 C 312.990 278.220,312.865 284.940,308.252 287.917 C 304.297 290.469,295.409 289.017,293.724 285.543 C 291.593 281.153,293.446 275.452,297.269 274.631 C 297.781 274.521,298.560 274.343,299.000 274.235 C 301.068 273.727,307.176 274.377,308.488 275.244 M99.843 277.866 C 96.405 278.456,93.600 281.918,93.600 285.573 C 93.600 287.912,94.196 290.000,94.864 290.000 C 95.049 290.000,95.200 290.255,95.200 290.567 C 95.200 291.325,97.768 292.884,100.000 293.482 C 108.888 295.864,116.244 289.314,112.760 282.118 C 111.041 278.567,105.804 276.843,99.843 277.866 M155.600 277.930 C 153.165 278.399,149.228 281.761,150.097 282.630 C 150.213 282.747,150.680 282.241,151.135 281.506 C 152.620 279.103,154.490 278.400,159.400 278.400 C 165.995 278.400,168.764 280.566,168.832 285.780 C 168.860 287.988,168.901 288.097,169.292 287.017 C 171.367 281.303,163.882 276.336,155.600 277.930 M109.769 279.513 C 115.694 283.616,113.373 292.247,106.137 293.021 C 96.843 294.017,91.257 288.552,95.014 282.140 C 97.325 278.196,105.712 276.703,109.769 279.513 M149.443 283.833 C 146.171 292.359,163.014 298.059,168.180 290.174 C 169.311 288.448,168.821 288.251,167.597 289.940 C 166.936 290.853,166.229 291.600,166.026 291.600 C 165.823 291.600,165.342 291.915,164.957 292.300 C 163.657 293.600,154.948 293.313,153.107 291.909 C 150.818 290.163,149.868 288.283,149.894 285.549 C 149.917 283.082,149.841 282.794,149.443 283.833 M68.800 286.560 C 68.800 289.575,75.098 305.051,79.293 312.347 C 83.819 320.217,92.797 330.713,99.547 336.025 C 100.508 336.781,101.498 337.589,101.747 337.819 C 101.996 338.049,103.100 338.849,104.200 339.596 C 105.300 340.342,106.260 341.099,106.333 341.277 C 106.407 341.455,106.626 341.600,106.821 341.600 C 107.016 341.600,108.396 342.387,109.888 343.350 C 116.207 347.427,126.514 351.833,133.800 353.573 C 134.900 353.836,136.430 354.206,137.200 354.395 C 138.824 354.796,141.832 355.375,145.800 356.053 C 149.504 356.685,167.640 356.675,171.600 356.039 C 174.253 355.612,176.929 355.134,179.947 354.546 C 182.097 354.127,180.300 354.001,177.950 354.406 C 153.108 358.685,126.741 354.283,110.528 343.148 C 109.608 342.517,108.738 342.000,108.595 342.000 C 108.251 342.000,103.781 338.743,100.453 336.067 C 89.376 327.161,78.317 312.397,74.036 300.800 C 73.326 298.876,72.772 297.528,72.353 296.705 C 72.159 296.323,72.000 295.736,72.000 295.400 C 72.000 295.064,71.838 294.477,71.639 294.095 C 71.440 293.713,71.083 292.680,70.844 291.800 C 69.571 287.109,68.800 285.132,68.800 286.560 M334.497 301.923 C 325.856 304.570,328.411 316.916,337.721 317.495 C 346.760 318.058,351.760 312.986,348.716 306.342 C 346.898 302.374,340.013 300.234,334.497 301.923 M344.814 302.799 C 350.972 306.042,349.854 315.204,343.103 316.823 C 332.397 319.392,324.908 309.521,332.938 303.425 C 334.861 301.965,342.468 301.564,344.814 302.799 M192.543 305.957 C 184.790 307.960,184.549 320.129,192.239 321.345 C 193.097 321.481,194.562 321.707,195.494 321.847 C 205.152 323.304,210.511 312.344,202.766 306.977 C 201.069 305.800,195.354 305.230,192.543 305.957 M202.254 307.167 C 207.015 310.071,207.230 316.947,202.652 319.925 C 200.579 321.274,193.181 321.532,191.000 320.332 C 185.543 317.329,185.543 310.175,191.000 306.924 C 192.422 306.076,200.760 306.257,202.254 307.167 M283.163 307.731 C 274.705 312.196,278.642 322.815,288.745 322.789 C 298.194 322.764,302.591 315.028,296.576 309.013 C 294.118 306.555,286.728 305.848,283.163 307.731 M293.081 307.650 C 295.590 308.658,296.136 309.054,297.243 310.663 C 298.915 313.093,298.905 316.522,297.218 318.974 C 293.937 323.743,283.471 323.588,280.483 318.727 C 276.305 311.931,284.910 304.365,293.081 307.650 M141.796 311.330 C 135.163 313.917,133.935 321.305,139.464 325.360 L 141.400 326.780 145.965 326.790 C 150.435 326.800,154.000 325.765,154.000 324.459 C 154.000 324.289,154.321 323.802,154.713 323.375 C 160.463 317.117,150.584 307.904,141.796 311.330 M149.669 311.691 C 153.830 312.650,156.218 316.380,155.414 320.664 C 153.889 328.796,137.793 328.453,136.671 320.265 C 135.776 313.738,141.674 309.848,149.669 311.691 " stroke="none" fill="#8c502f" fill-rule="evenodd"></path></g></svg>